<svg width="296" height="233" viewBox="0 0 296 233" fill="none" xmlns="http://www.w3.org/2000/svg">
<path d="M117.273 99.3475C117.133 99.4023 116.983 99.4255 116.833 99.4154C116.485 99.3493 116.151 99.2265 115.843 99.052C115.04 97.3306 114.239 95.6092 113.438 93.8879C109.912 86.2395 106.389 78.5912 102.946 70.9029L97.7903 59.3684C96.1128 55.5063 94.3954 51.6602 92.75 47.7781C94.6431 51.5444 96.4643 55.3426 98.3255 59.1209L103.785 70.5155C107.424 78.1119 110.974 85.7482 114.529 93.3846C115.132 94.6947 115.735 96.0047 116.338 97.3147C116.034 97.3226 115.835 97.3826 115.807 97.4744C115.763 97.6142 116.174 97.766 116.965 98.6806C117.069 98.9043 117.169 99.1238 117.273 99.3475Z" fill="#1E3E2A"/>
<path d="M135.216 139.494C133.327 135.732 131.502 131.933 129.645 128.155L124.185 116.76C122.484 113.21 120.801 109.653 119.137 106.089C119.612 106.165 120.059 106.228 120.447 106.28C120.451 106.276 120.451 106.276 120.451 106.28C121.984 109.639 123.506 113.003 125.016 116.373L130.172 127.907C131.853 131.77 133.571 135.616 135.216 139.494Z" fill="#1E3E2A"/>
<path d="M135.66 97.1324L140.961 97.9374C142.717 98.1992 144.453 98.4831 146.192 98.7574L145.968 98.8974L146.359 97.5003C146.372 97.4521 146.402 97.4103 146.444 97.3822C146.485 97.3542 146.535 97.3416 146.585 97.3469L146.589 97.3474L148.027 97.5007C148.534 97.529 149.031 97.6449 149.498 97.8432C150.45 98.2609 151.204 99.0312 151.601 99.9926C151.699 100.23 151.775 100.476 151.828 100.728C151.855 100.853 151.875 100.98 151.89 101.108C151.908 101.228 151.917 101.336 151.94 101.448C152.013 101.888 152.179 102.307 152.429 102.676C152.699 103.028 153.045 103.315 153.44 103.515C153.836 103.716 154.271 103.826 154.714 103.837L154.489 103.918C155.809 102.727 157.255 101.684 158.8 100.805C160.324 99.9142 161.905 99.1271 163.535 98.4493C164.354 98.125 165.168 97.7895 166.005 97.5128C166.831 97.208 167.675 96.9587 168.517 96.7049C169.356 96.4415 170.216 96.2531 171.064 96.0238C171.92 95.823 172.783 95.6556 173.639 95.463L173.554 95.5248C173.763 95.1354 173.931 94.7251 174.055 94.3009C174.187 93.8816 174.247 93.443 174.233 93.0037C174.222 92.5731 174.079 92.1565 173.822 91.8105C173.539 91.4823 173.173 91.2365 172.762 91.0989L172.753 91.0951C172.742 91.0905 172.732 91.084 172.724 91.0758C171.506 89.8885 170.266 88.7248 169.035 87.5519C167.802 86.3803 166.562 85.2162 165.315 84.0597L161.562 80.6054C160.304 79.4713 159.046 78.2998 157.74 77.2641L157.736 77.2608C157.687 77.2218 157.655 77.1649 157.648 77.1026C157.641 77.0402 157.659 76.9776 157.698 76.9285C157.709 76.9137 157.723 76.9004 157.738 76.8887L160.908 74.4231L160.81 74.7072L158.03 64.3917L158.528 64.577C157.148 65.5314 155.782 66.5109 154.416 67.4877C153.049 68.4647 151.694 69.4561 150.35 70.462C149.009 71.4713 147.681 72.4972 146.392 73.5643C145.748 74.0986 145.117 74.6469 144.508 75.2112C144.205 75.4934 143.907 75.7825 143.634 76.0839C143.363 76.3567 143.134 76.6687 142.956 77.0094L142.976 76.9094C142.939 77.6335 142.857 78.3546 142.732 79.0687C142.611 79.7846 142.434 80.49 142.204 81.1784C141.977 81.8823 141.643 82.5473 141.215 83.1503C140.771 83.7868 140.115 84.2444 139.365 84.4414L139.425 84.4181C138.965 84.726 138.561 85.109 138.228 85.5511C138.049 85.7695 137.894 86.0089 137.734 86.2433C137.595 86.4918 137.433 86.7277 137.311 86.9868C136.79 88.0134 136.408 89.1047 136.174 90.232C136.026 90.7908 135.961 91.3671 135.859 91.9368C135.787 92.5108 135.736 93.089 135.685 93.6667C135.668 94.2452 135.636 94.8295 135.63 95.4051L135.66 97.1324ZM135.612 97.1756L135.506 95.4123C135.491 94.8239 135.503 94.2437 135.5 93.658C135.531 93.075 135.562 92.4902 135.615 91.9074C135.7 91.3283 135.739 90.7408 135.878 90.1689C136.091 89.0072 136.457 87.8788 136.967 86.8135C137.087 86.5424 137.249 86.2914 137.389 86.0292C137.55 85.7793 137.707 85.5249 137.891 85.2888C138.248 84.7892 138.69 84.3558 139.196 84.0084C139.209 83.9998 139.224 83.9934 139.239 83.9895L139.257 83.9849C139.89 83.7994 140.439 83.3979 140.808 82.8501C141.195 82.2846 141.494 81.6634 141.694 81.0079C141.906 80.3436 142.066 79.664 142.172 78.975C142.282 78.2859 142.35 77.5908 142.377 76.8934L142.377 76.8819C142.378 76.8514 142.385 76.8214 142.397 76.7932C142.593 76.3798 142.856 76.0009 143.174 75.6713C143.461 75.3455 143.763 75.0437 144.071 74.749C144.685 74.1585 145.328 73.6083 145.975 73.0641C147.274 71.9822 148.605 70.9474 149.949 69.9295C152.638 67.8969 155.375 65.934 158.161 64.0406L158.163 64.0392C158.234 63.9909 158.321 63.9728 158.406 63.9889C158.49 64.0049 158.565 64.0538 158.613 64.1248C158.634 64.1557 158.649 64.1898 158.659 64.2258L161.334 74.569L161.335 74.5727C161.348 74.6239 161.345 74.678 161.328 74.7279C161.31 74.7779 161.279 74.8215 161.236 74.8533L158.023 77.2621L158.02 76.8868C159.361 77.9887 160.572 79.1631 161.82 80.3272L165.511 83.853L172.865 90.9296L172.827 90.9066C173.277 91.0531 173.68 91.319 173.991 91.6761C174.279 92.0558 174.444 92.5154 174.461 92.9919C174.481 93.4568 174.422 93.9217 174.287 94.3669C174.162 94.8112 173.99 95.241 173.775 95.6494C173.767 95.6644 173.756 95.6775 173.743 95.6879C173.729 95.6982 173.714 95.7056 173.698 95.7096L173.69 95.7114C172.839 95.9117 171.986 96.1067 171.14 96.3237C170.302 96.5717 169.452 96.7786 168.625 97.0598C167.795 97.3317 166.964 97.5977 166.152 97.9184C165.33 98.2111 164.531 98.5619 163.728 98.9008C162.136 99.6057 160.586 100.401 159.084 101.283C158.34 101.732 157.605 102.198 156.904 102.708C156.199 103.201 155.526 103.739 154.888 104.317L154.879 104.325C154.85 104.352 154.816 104.373 154.779 104.385C154.741 104.398 154.702 104.402 154.663 104.398C154.148 104.353 153.646 104.219 153.177 104.001C152.698 103.772 152.287 103.42 151.986 102.982C151.697 102.548 151.505 102.056 151.424 101.541C151.399 101.417 151.388 101.284 151.372 101.166C151.36 101.054 151.343 100.943 151.321 100.832C151.276 100.611 151.211 100.395 151.127 100.186C150.787 99.341 150.132 98.6604 149.301 98.2874C148.88 98.104 148.431 97.9926 147.974 97.9576L146.539 97.7729L146.77 97.6202L146.349 99.0084L146.347 99.0129C146.333 99.0589 146.303 99.0981 146.262 99.1231C146.221 99.1481 146.172 99.1571 146.125 99.1484C144.356 98.8232 142.585 98.5074 140.833 98.1695L135.612 97.1756Z" fill="black"/>
<path d="M157.88 77.0753C157.369 76.804 156.876 76.5091 156.383 76.2136C155.889 75.9211 155.406 75.6118 154.919 75.31L153.468 74.3904C153.228 74.2346 152.983 74.0885 152.735 73.9462C152.497 73.7886 152.236 73.6695 151.961 73.5935C152.537 73.6773 153.091 73.8749 153.59 74.1747C154.107 74.4355 154.602 74.7323 155.091 75.0374C155.576 75.3478 156.056 75.6653 156.52 76.0078C156.985 76.3471 157.445 76.6944 157.88 77.0753Z" fill="black"/>
<path d="M160.954 74.2822C160.976 74.2532 161.006 74.2312 161.04 74.2191C161.074 74.207 161.111 74.2053 161.146 74.2142C161.207 74.2233 161.267 74.2383 161.324 74.2592C161.436 74.2998 161.545 74.3476 161.65 74.4024C161.86 74.5093 162.06 74.6318 162.258 74.756C162.654 75.0064 163.037 75.2724 163.417 75.543C164.175 76.087 164.905 76.6655 165.635 77.2431C167.099 78.3953 168.499 79.62 169.905 80.8416C169.937 80.8689 169.961 80.9031 169.977 80.9415C169.993 80.98 170 81.0216 169.997 81.0631L169.997 81.0716C169.951 81.7063 169.924 82.341 169.909 82.9706C169.882 83.5853 169.935 84.2009 170.067 84.802C170.149 85.0864 170.275 85.3562 170.441 85.6017L170.559 85.8068C170.578 85.8378 170.605 85.8626 170.638 85.8781C170.752 85.9328 170.877 85.9637 171.003 85.969C171.62 85.983 172.234 85.9051 172.827 85.7379L172.832 85.7368C172.872 85.7272 172.914 85.7302 172.953 85.7454C172.991 85.7607 173.024 85.7873 173.046 85.8218L173.194 86.0477C173.247 86.1179 173.305 86.1801 173.361 86.2452C173.407 86.2978 173.464 86.3396 173.528 86.3678C173.591 86.396 173.661 86.4099 173.731 86.4084C173.879 86.3681 174.007 86.2739 174.089 86.1443C174.196 86.0005 174.283 85.8431 174.348 85.6763L174.349 85.6731C174.359 85.6473 174.377 85.6252 174.4 85.6096C174.423 85.594 174.45 85.5857 174.477 85.5856C174.505 85.5855 174.532 85.5937 174.555 85.6092C174.578 85.6247 174.596 85.6467 174.606 85.6724L174.707 85.9213C174.746 85.998 174.789 86.0726 174.836 86.1447C174.872 86.2071 174.924 86.2588 174.986 86.2941C175.049 86.3294 175.12 86.3472 175.192 86.3454C175.348 86.3036 175.486 86.211 175.584 86.0821C175.702 85.9473 175.803 85.7997 175.888 85.6419C175.895 85.629 175.904 85.6174 175.915 85.608C175.926 85.5987 175.939 85.5916 175.954 85.5872C175.968 85.5829 175.982 85.5813 175.997 85.5827C176.012 85.584 176.026 85.5882 176.039 85.5951C176.056 85.6046 176.071 85.6184 176.082 85.6351C176.169 85.7825 176.269 85.9217 176.381 86.051C176.428 86.109 176.486 86.1568 176.553 86.1917C176.619 86.2265 176.691 86.2477 176.766 86.2538C176.84 86.2402 176.91 86.2104 176.971 86.1665C177.032 86.1227 177.083 86.0659 177.12 86.0002C177.214 85.8596 177.288 85.7064 177.34 85.5451C177.346 85.5273 177.357 85.5114 177.371 85.4992C177.385 85.487 177.402 85.4789 177.421 85.4758C177.439 85.4728 177.458 85.4748 177.476 85.4818C177.493 85.4888 177.508 85.5005 177.52 85.5155C177.644 85.7174 177.836 85.8683 178.061 85.941C178.265 85.977 178.46 85.8087 178.594 85.608C178.729 85.4028 178.813 85.1689 178.841 84.925C178.869 84.6811 178.86 84.4098 178.868 84.1541C178.871 83.6421 178.811 83.1317 178.69 82.6344C178.634 82.3996 178.532 82.1782 178.39 81.9829C178.337 81.9015 178.265 81.8339 178.18 81.7856C178.096 81.7373 178.001 81.7097 177.904 81.7051L177.883 81.7078C177.874 81.7087 177.866 81.7085 177.858 81.7071C177.778 81.695 177.703 81.6597 177.644 81.6057C177.607 81.5753 177.573 81.5427 177.54 81.508C177.479 81.4436 177.426 81.3799 177.374 81.3155C177.271 81.1868 177.175 81.057 177.083 80.9259C176.898 80.6639 176.724 80.3982 176.552 80.1311C176.211 79.5953 175.888 79.0512 175.569 78.5049C175.262 77.947 174.919 77.4387 174.577 76.9042L173.562 75.3161C172.875 74.2606 172.191 73.2031 171.488 72.1592C170.796 71.1076 170.103 70.0568 169.385 69.0255C168.68 67.9844 167.927 66.9798 167.187 65.9688C166.455 64.9627 165.635 64.0241 164.736 63.1641C164.311 62.7472 163.798 62.4299 163.235 62.2349C162.959 62.1929 162.677 62.2254 162.417 62.3289C162.129 62.43 161.849 62.5544 161.581 62.7007C160.487 63.3156 159.456 64.0353 158.503 64.8499C158.499 64.8527 158.496 64.8549 158.492 64.8563C158.488 64.8576 158.483 64.8582 158.479 64.858C158.475 64.8577 158.471 64.8567 158.467 64.8548C158.463 64.853 158.46 64.8504 158.457 64.8472C158.452 64.8409 158.449 64.8328 158.449 64.8245C158.45 64.8162 158.453 64.8083 158.459 64.8024C159.36 63.9063 160.353 63.108 161.423 62.421C161.7 62.2516 161.991 62.1051 162.293 61.9829C162.616 61.838 162.973 61.7853 163.325 61.8304C163.971 62.0074 164.566 62.3351 165.061 62.7866C166.013 63.6417 166.886 64.5808 167.67 65.5923C168.461 66.5837 169.207 67.6092 169.929 68.6469C170.295 69.1631 170.653 69.6837 171.004 70.2088C171.359 70.7316 171.716 71.2532 172.056 71.7854C172.744 72.8451 173.412 73.9166 174.083 74.986L175.078 76.6021C175.406 77.136 175.746 77.6877 176.033 78.2436C176.333 78.7955 176.64 79.3424 176.956 79.8841C177.114 80.1547 177.273 80.4238 177.441 80.6848C177.524 80.8153 177.61 80.9434 177.699 81.0652C177.743 81.1256 177.788 81.1852 177.834 81.2365C177.854 81.2606 177.875 81.2833 177.898 81.3047C177.915 81.3253 177.941 81.3246 177.887 81.3192L177.841 81.3212C178.007 81.3169 178.172 81.3563 178.318 81.4353C178.464 81.5143 178.587 81.6303 178.674 81.7716C178.834 82.0076 178.945 82.273 179.002 82.5523C179.111 83.0799 179.154 83.6189 179.13 84.157C179.112 84.4251 179.109 84.6802 179.076 84.9577C179.04 85.237 178.938 85.5038 178.78 85.7368C178.699 85.857 178.596 85.9617 178.478 86.0461C178.347 86.1389 178.185 86.1773 178.027 86.1532C177.746 86.0703 177.506 85.8855 177.355 85.6351L177.535 85.6055C177.474 85.7861 177.389 85.9572 177.28 86.1134C177.226 86.2025 177.153 86.279 177.067 86.3377C176.981 86.3964 176.883 86.4359 176.78 86.4536C176.676 86.4519 176.573 86.4283 176.478 86.3843C176.383 86.3403 176.299 86.2768 176.23 86.198C176.103 86.0589 175.99 85.9081 175.892 85.7477L176.085 85.7408C175.996 85.9175 175.886 86.0832 175.759 86.2348C175.628 86.4088 175.441 86.5325 175.23 86.585C175.114 86.5958 174.997 86.5747 174.892 86.524C174.787 86.4733 174.698 86.395 174.634 86.2975C174.576 86.2128 174.522 86.1251 174.473 86.0377L174.349 85.7684L174.608 85.7645C174.543 85.9617 174.451 86.1491 174.335 86.3215C174.213 86.5234 174.019 86.6709 173.791 86.7335C173.669 86.7497 173.545 86.7379 173.429 86.6991C173.312 86.6603 173.206 86.5954 173.118 86.5094C173.043 86.4332 172.966 86.3563 172.899 86.2754L172.717 86.0252L172.936 86.1091C172.303 86.3205 171.641 86.4338 170.973 86.445C170.779 86.4436 170.586 86.4018 170.409 86.3222C170.296 86.2691 170.199 86.1865 170.129 86.0831L169.998 85.8775C169.797 85.5959 169.644 85.2827 169.545 84.9509C169.389 84.3015 169.319 83.6343 169.338 82.9667C169.334 82.3144 169.386 81.669 169.442 81.0263L169.533 81.2561C168.848 80.6326 168.157 80.0138 167.46 79.3997L165.37 77.5614C164.672 76.9503 163.964 76.3512 163.247 75.7641C162.89 75.4694 162.529 75.1794 162.157 74.9052C161.971 74.7682 161.781 74.637 161.587 74.5149C161.491 74.4532 161.392 74.3978 161.289 74.3491C161.195 74.3064 161.059 74.2554 161.011 74.3138L161.006 74.3189C161.001 74.325 160.994 74.329 160.986 74.3301C160.978 74.3311 160.97 74.3291 160.963 74.3245C160.957 74.3199 160.952 74.313 160.951 74.3052C160.949 74.2973 160.95 74.2891 160.954 74.2822V74.2822Z" fill="black"/>
<path d="M160.945 74.1564C161.396 73.6493 161.889 73.1818 162.419 72.7589C162.682 72.5481 162.947 72.3396 163.222 72.144C163.494 71.9434 163.781 71.7636 164.07 71.5808C163.643 72.11 163.158 72.5889 162.622 73.0086C162.1 73.4425 161.539 73.8268 160.945 74.1564Z" fill="black"/>
<path d="M177.873 81.5143C177.679 81.4907 177.625 81.7073 177.589 81.8595C177.557 82.0296 177.536 82.2017 177.525 82.3746C177.502 82.7228 177.503 83.0773 177.5 83.4307L177.493 84.4978C177.484 84.855 177.477 85.2139 177.437 85.5764C177.262 84.8741 177.175 84.1527 177.178 83.4288C177.177 83.0637 177.21 82.6994 177.277 82.3404C177.312 82.1572 177.367 81.9783 177.441 81.807C177.485 81.7204 177.54 81.6402 177.605 81.5687C177.636 81.5296 177.68 81.5027 177.729 81.4928C177.778 81.4828 177.829 81.4904 177.873 81.5143Z" fill="black"/>
<path d="M175.841 81.9897C175.978 82.5957 176.057 83.2137 176.074 83.8348C176.106 84.4555 176.076 85.0777 175.986 85.6925C175.847 85.0867 175.769 84.4687 175.752 83.8475C175.721 83.2268 175.751 82.6046 175.841 81.9897Z" fill="black"/>
<path d="M172.803 84.673C172.847 84.665 172.903 84.657 172.959 84.645C172.943 85.0684 172.927 85.4958 172.903 85.9232C172.902 85.9289 172.899 85.9342 172.895 85.938C172.89 85.9417 172.884 85.9435 172.879 85.943C172.874 85.9425 172.87 85.9401 172.867 85.9363C172.864 85.9326 172.862 85.9279 172.863 85.9232C172.839 85.5078 172.819 85.0924 172.803 84.673Z" fill="black"/>
<path d="M177.485 81.9765C177.487 81.9791 177.487 81.982 177.487 81.9848C177.487 81.9877 177.487 81.9905 177.486 81.9932C177.485 81.9958 177.483 81.9982 177.481 82.0001C177.479 82.0021 177.476 82.0036 177.474 82.0045C177.47 82.006 177.466 82.0064 177.463 82.0057C177.459 82.005 177.456 82.0032 177.454 82.0005C177.333 81.8789 177.2 81.7693 177.058 81.673C176.941 81.5923 176.801 81.5529 176.659 81.5611C176.527 81.5871 176.405 81.6526 176.311 81.7488C176.202 81.8501 176.106 81.9657 176.028 82.0924L176.016 82.1083C176.002 82.1313 175.984 82.1514 175.962 82.1673C175.941 82.1831 175.916 82.1946 175.89 82.2009C175.864 82.2072 175.837 82.2083 175.811 82.204C175.784 82.1998 175.759 82.1904 175.736 82.1762C175.71 82.1616 175.688 82.1411 175.672 82.1162C175.601 81.9866 175.504 81.8729 175.387 81.7822C175.271 81.6916 175.137 81.6258 174.993 81.5891C174.836 81.5868 174.681 81.6282 174.546 81.7085C174.41 81.7889 174.3 81.9051 174.226 82.0444C174.219 82.0567 174.208 82.0665 174.195 82.0723C174.189 82.076 174.181 82.0774 174.175 82.0764C174.171 82.0759 174.169 82.0745 174.167 82.0723C174.16 82.0734 174.153 82.072 174.147 82.0684C174.137 82.0625 174.128 82.0543 174.123 82.0444C174.023 81.8366 173.857 81.668 173.651 81.5651C173.57 81.5367 173.481 81.5357 173.399 81.5624C173.317 81.5891 173.245 81.642 173.196 81.7129C173.135 81.784 173.088 81.8669 173.06 81.9565C173.046 82.0036 173.036 82.0517 173.028 82.1003V82.28L173.012 82.955C172.956 82.959 172.904 82.963 172.853 82.963C172.817 82.963 172.781 82.967 172.745 82.967L172.725 82.28L172.721 82.0963C172.72 82.0241 172.725 81.952 172.737 81.8807C172.766 81.733 172.83 81.5946 172.924 81.4773C173.027 81.3559 173.168 81.2728 173.324 81.2416C173.403 81.2287 173.484 81.2323 173.562 81.2523C173.639 81.2722 173.712 81.308 173.775 81.3574C173.943 81.5098 174.079 81.6946 174.175 81.9006C174.255 81.7716 174.35 81.6523 174.458 81.5451C174.599 81.3937 174.791 81.2999 174.997 81.2816C175.21 81.2715 175.42 81.335 175.592 81.4613C175.672 81.5213 175.748 81.5851 175.82 81.649C175.888 81.5679 175.964 81.4943 176.048 81.4294C176.218 81.2882 176.434 81.2143 176.655 81.2217C176.76 81.2292 176.863 81.2578 176.957 81.3058C177.051 81.3538 177.134 81.4203 177.202 81.5012C177.327 81.6391 177.424 81.8007 177.485 81.9765Z" fill="black"/>
<path d="M174.405 82.9201C174.305 82.916 174.205 82.9121 174.098 82.9121C174.1 82.6312 174.123 82.3509 174.166 82.0733C174.166 82.0531 174.169 82.0331 174.174 82.0134C174.182 82.0333 174.186 82.0533 174.194 82.0733C174.283 82.3504 174.354 82.6333 174.405 82.9201Z" fill="black"/>
<path d="M174.477 85.7185C174.326 85.2623 174.224 84.7909 174.174 84.3127C174.302 84.2648 174.425 84.2129 174.541 84.157C174.58 84.6782 174.558 85.2022 174.477 85.7185Z" fill="black"/>
<path d="M154.959 105.393L154.688 104.115C154.688 104.115 159.153 99.0144 172.884 95.7075L173.667 95.5876C174.208 95.9373 174.731 96.3159 175.232 96.7219C174.318 96.8737 173.399 97.0494 172.484 97.2132C171.578 97.4248 170.663 97.6245 169.761 97.8522L168.415 98.2316L167.74 98.4233L167.077 98.643L166.27 98.9106C166.228 98.8925 166.182 98.8882 166.138 98.8985C166.111 98.9054 166.086 98.9178 166.064 98.935C166.042 98.9522 166.023 98.9738 166.01 98.9984L165.747 99.0863C165.307 99.242 164.876 99.4137 164.437 99.5776C163.298 100.037 162.172 100.536 161.074 101.087C160.962 100.736 160.862 100.38 160.782 100.017C160.809 100.398 160.863 100.777 160.942 101.151C160.419 101.419 159.896 101.698 159.388 101.998L158.198 102.737C157.819 103.008 157.419 103.252 157.052 103.54C156.295 104.087 155.594 104.708 154.959 105.393Z" fill="black"/>
<path d="M214.405 128.102C214.405 128.102 214.25 125.163 188.249 136.306C188.249 136.306 181.623 130.075 181.288 114.359C181.264 113.257 181.3 112.154 181.356 111.056C181.43 109.391 181.285 107.723 180.925 106.096C180.821 106.203 180.717 106.319 180.605 106.427C180.491 106.529 180.371 106.625 180.246 106.715C179.995 106.899 179.721 107.049 179.431 107.162C179.131 107.265 178.817 107.324 178.5 107.338C178.175 107.352 177.85 107.308 177.542 107.206C177.519 107.197 177.498 107.183 177.482 107.164C177.466 107.145 177.455 107.122 177.45 107.098L177.446 107.082C177.329 106.48 177.177 105.885 176.99 105.301C176.815 104.714 176.611 104.131 176.411 103.548L175.776 101.802L175.121 100.069L175.117 100.057C175.106 100.027 175.107 99.9944 175.12 99.9653C175.133 99.9363 175.156 99.9133 175.185 99.9012H175.189C175.589 99.7573 175.988 99.6135 176.391 99.4858C176.795 99.3499 177.198 99.2141 177.606 99.0903C176.899 98.221 176.104 97.4273 175.233 96.7219L172.517 97.365C171.623 97.6086 170.72 97.8322 169.825 98.0918C168.683 98.4393 167.541 98.7907 166.415 99.1822C166.451 99.33 166.518 99.5936 166.614 99.961C166.626 100.012 166.618 100.066 166.591 100.112C166.564 100.157 166.521 100.19 166.471 100.205C166.454 100.209 166.436 100.212 166.419 100.213C166.374 100.213 166.331 100.198 166.296 100.17C166.261 100.143 166.237 100.104 166.227 100.061C166.139 99.7174 166.075 99.4658 166.035 99.314C165.54 99.4897 165.045 99.6775 164.557 99.8772C163.407 100.324 162.276 100.818 161.163 101.359C161.183 101.415 161.199 101.475 161.219 101.531C161.388 102.023 161.591 102.504 161.826 102.968C162.286 103.894 162.888 104.742 163.611 105.481C163.972 105.846 164.363 106.18 164.781 106.479C165.211 106.763 165.664 107.012 166.135 107.222C167.093 107.638 168.104 107.92 169.138 108.061C169.019 108.057 168.895 108.049 168.775 108.041C168.792 108.064 168.806 108.089 168.815 108.117L169.071 109.019C169.078 109.044 169.081 109.07 169.078 109.096C169.075 109.122 169.067 109.147 169.055 109.17C169.042 109.193 169.025 109.213 169.004 109.229C168.984 109.245 168.96 109.256 168.935 109.263C168.917 109.269 168.898 109.272 168.879 109.271C168.836 109.27 168.794 109.256 168.76 109.23C168.725 109.204 168.7 109.168 168.687 109.127L168.432 108.224C168.421 108.189 168.421 108.152 168.431 108.117C168.441 108.081 168.461 108.05 168.487 108.025C168.444 108.021 168.396 108.021 168.348 108.017C168.082 108.013 167.817 107.985 167.557 107.933C167.03 107.842 166.514 107.699 166.015 107.505C165.511 107.319 165.027 107.079 164.573 106.791C163.226 105.882 162.175 104.597 161.55 103.096C161.322 102.56 161.139 102.005 161.003 101.439C160.5 101.686 160.004 101.942 159.513 102.214L158.311 102.912C157.924 103.164 157.52 103.396 157.145 103.671C156.367 104.179 155.636 104.755 154.96 105.393C155.743 106.899 156.486 108.42 157.221 109.95C157.952 111.479 158.654 113.021 159.361 114.563C159.493 114.858 159.625 115.154 159.757 115.449C159.789 115.453 160.911 118.053 161.406 119.22C162.069 120.777 162.72 122.343 163.335 123.925C163.335 123.925 173.084 151.471 187.011 152.09C187.011 152.09 194.44 151.471 214.405 143.579C214.405 143.579 216.726 129.959 214.405 128.102ZM166.698 101.886C166.61 101.555 166.53 101.251 166.459 100.975C166.447 100.924 166.455 100.87 166.482 100.825C166.509 100.78 166.552 100.746 166.602 100.732C166.628 100.725 166.654 100.723 166.68 100.727C166.706 100.731 166.732 100.739 166.754 100.753C166.777 100.766 166.797 100.784 166.812 100.805C166.828 100.826 166.84 100.85 166.846 100.876C166.918 101.151 166.998 101.455 167.086 101.782C167.092 101.808 167.094 101.834 167.09 101.86C167.087 101.886 167.078 101.911 167.065 101.934C167.051 101.957 167.034 101.977 167.012 101.992C166.991 102.008 166.967 102.019 166.942 102.026C166.925 102.03 166.907 102.033 166.89 102.034C166.846 102.034 166.804 102.019 166.769 101.992C166.735 101.965 166.71 101.928 166.698 101.886ZM167.181 103.703L166.938 102.793C166.925 102.741 166.932 102.687 166.959 102.641C166.986 102.596 167.03 102.562 167.082 102.549C167.133 102.536 167.188 102.544 167.233 102.571C167.279 102.598 167.312 102.641 167.325 102.693L167.565 103.596C167.572 103.621 167.575 103.648 167.572 103.674C167.569 103.7 167.561 103.726 167.548 103.749C167.535 103.772 167.517 103.792 167.496 103.808C167.475 103.825 167.451 103.836 167.425 103.843C167.408 103.847 167.391 103.848 167.373 103.847C167.33 103.848 167.288 103.834 167.253 103.808C167.218 103.782 167.193 103.745 167.181 103.703ZM167.425 104.606C167.412 104.555 167.419 104.501 167.446 104.456C167.472 104.41 167.514 104.377 167.565 104.362C167.616 104.349 167.671 104.356 167.717 104.383C167.763 104.409 167.797 104.451 167.813 104.502L168.056 105.393L167.673 105.513L167.425 104.606ZM168.424 107.462C168.405 107.466 168.387 107.469 168.368 107.47C168.324 107.469 168.282 107.455 168.247 107.428C168.212 107.401 168.187 107.364 168.176 107.322L167.924 106.419C167.917 106.394 167.915 106.367 167.918 106.341C167.921 106.314 167.929 106.289 167.942 106.266C167.955 106.243 167.973 106.223 167.994 106.207C168.015 106.19 168.039 106.178 168.064 106.172C168.089 106.164 168.116 106.162 168.142 106.166C168.168 106.169 168.193 106.177 168.215 106.19C168.238 106.203 168.258 106.221 168.274 106.241C168.29 106.262 168.301 106.286 168.308 106.311L168.559 107.214C168.574 107.265 168.568 107.319 168.543 107.366C168.517 107.412 168.474 107.447 168.424 107.462ZM169.402 111.072C169.359 111.073 169.316 111.059 169.282 111.033C169.247 111.007 169.222 110.97 169.21 110.928L168.947 110.03C168.933 109.979 168.939 109.925 168.965 109.878C168.99 109.832 169.032 109.798 169.083 109.782C169.108 109.774 169.134 109.771 169.16 109.774C169.187 109.776 169.212 109.784 169.235 109.797C169.259 109.81 169.279 109.827 169.295 109.848C169.311 109.868 169.323 109.892 169.33 109.918L169.594 110.816C169.601 110.842 169.604 110.868 169.601 110.894C169.598 110.92 169.59 110.946 169.578 110.969C169.565 110.992 169.548 111.012 169.527 111.028C169.507 111.045 169.483 111.057 169.458 111.064C169.44 111.07 169.421 111.073 169.402 111.072ZM169.933 112.869C169.891 112.869 169.85 112.855 169.815 112.83C169.781 112.805 169.755 112.77 169.742 112.73L169.474 111.831C169.466 111.806 169.463 111.779 169.466 111.753C169.468 111.727 169.476 111.701 169.488 111.678C169.501 111.654 169.518 111.634 169.538 111.617C169.558 111.6 169.582 111.588 169.607 111.58C169.633 111.572 169.659 111.57 169.685 111.572C169.712 111.575 169.737 111.583 169.76 111.595C169.784 111.608 169.804 111.625 169.821 111.646C169.838 111.666 169.85 111.69 169.857 111.715L170.125 112.614C170.14 112.664 170.135 112.718 170.11 112.765C170.085 112.811 170.043 112.846 169.993 112.861C169.974 112.868 169.954 112.871 169.933 112.869ZM170.476 114.663C170.434 114.663 170.393 114.65 170.359 114.625C170.325 114.599 170.3 114.564 170.289 114.523L170.013 113.628C170.005 113.603 170.002 113.576 170.004 113.55C170.007 113.524 170.014 113.498 170.026 113.475C170.039 113.451 170.055 113.43 170.076 113.413C170.096 113.396 170.119 113.384 170.145 113.376C170.17 113.368 170.196 113.365 170.223 113.367C170.249 113.37 170.275 113.377 170.298 113.39C170.322 113.402 170.342 113.419 170.359 113.439C170.376 113.46 170.389 113.483 170.397 113.508L170.668 114.407C170.683 114.457 170.678 114.511 170.653 114.558C170.628 114.604 170.587 114.639 170.536 114.655C170.517 114.661 170.497 114.664 170.476 114.663ZM171.032 116.456C170.989 116.456 170.948 116.442 170.915 116.417C170.881 116.392 170.856 116.356 170.844 116.316L170.564 115.421C170.556 115.396 170.552 115.37 170.554 115.343C170.556 115.317 170.564 115.291 170.576 115.267C170.589 115.244 170.606 115.223 170.626 115.206C170.647 115.19 170.671 115.177 170.696 115.17C170.746 115.155 170.801 115.16 170.847 115.185C170.893 115.21 170.928 115.251 170.944 115.302L171.223 116.196C171.231 116.221 171.234 116.247 171.232 116.273C171.229 116.299 171.222 116.325 171.209 116.348C171.197 116.371 171.18 116.391 171.16 116.408C171.14 116.424 171.117 116.437 171.092 116.444C171.072 116.452 171.052 116.456 171.032 116.456ZM171.603 118.241C171.56 118.241 171.519 118.228 171.484 118.202C171.45 118.177 171.424 118.142 171.411 118.101C171.315 117.806 171.219 117.506 171.123 117.211C171.115 117.186 171.112 117.159 171.115 117.133C171.117 117.106 171.124 117.081 171.137 117.057C171.149 117.034 171.166 117.013 171.186 116.996C171.206 116.979 171.23 116.967 171.255 116.959C171.306 116.944 171.36 116.948 171.407 116.972C171.454 116.996 171.49 117.037 171.507 117.087C171.599 117.386 171.695 117.682 171.79 117.977C171.799 118.002 171.802 118.029 171.801 118.055C171.799 118.081 171.792 118.107 171.78 118.13C171.768 118.154 171.751 118.175 171.731 118.192C171.711 118.209 171.688 118.221 171.663 118.229C171.644 118.237 171.623 118.241 171.603 118.241ZM172.182 120.018C172.14 120.019 172.099 120.006 172.064 119.981C172.03 119.957 172.004 119.922 171.99 119.883L171.699 118.992C171.682 118.942 171.687 118.887 171.711 118.84C171.735 118.793 171.776 118.758 171.827 118.741C171.877 118.725 171.931 118.729 171.979 118.753C172.026 118.777 172.061 118.818 172.078 118.868L172.37 119.755C172.378 119.78 172.382 119.806 172.38 119.832C172.378 119.859 172.371 119.884 172.359 119.908C172.347 119.931 172.331 119.952 172.311 119.969C172.29 119.986 172.267 119.999 172.242 120.006C172.223 120.014 172.202 120.018 172.182 120.018ZM172.781 121.8C172.739 121.8 172.698 121.787 172.663 121.763C172.629 121.738 172.603 121.704 172.589 121.664C172.489 121.368 172.39 121.069 172.29 120.773C172.281 120.748 172.277 120.722 172.278 120.696C172.279 120.669 172.286 120.644 172.297 120.62C172.309 120.596 172.325 120.575 172.345 120.557C172.364 120.54 172.387 120.526 172.412 120.518C172.437 120.51 172.464 120.506 172.49 120.508C172.516 120.51 172.542 120.517 172.565 120.529C172.589 120.541 172.61 120.557 172.627 120.577C172.644 120.597 172.657 120.62 172.665 120.645C172.765 120.941 172.869 121.237 172.969 121.536C172.978 121.566 172.981 121.598 172.976 121.629C172.971 121.66 172.959 121.689 172.941 121.715C172.922 121.74 172.899 121.761 172.871 121.776C172.843 121.791 172.812 121.799 172.781 121.8ZM173.392 123.569C173.351 123.569 173.311 123.556 173.278 123.532C173.244 123.509 173.219 123.476 173.204 123.437C173.1 123.142 172.997 122.846 172.897 122.551C172.888 122.526 172.883 122.5 172.885 122.473C172.886 122.447 172.892 122.421 172.903 122.397C172.915 122.373 172.931 122.352 172.95 122.334C172.97 122.316 172.993 122.303 173.018 122.294C173.042 122.285 173.069 122.282 173.095 122.283C173.121 122.285 173.147 122.291 173.171 122.303C173.195 122.315 173.216 122.331 173.233 122.351C173.251 122.371 173.264 122.394 173.272 122.419C173.376 122.714 173.476 123.01 173.58 123.301C173.589 123.326 173.593 123.352 173.592 123.379C173.591 123.405 173.585 123.431 173.574 123.455C173.563 123.478 173.547 123.5 173.527 123.517C173.508 123.535 173.485 123.548 173.46 123.557C173.438 123.565 173.415 123.569 173.392 123.569ZM174.023 125.334C173.982 125.333 173.943 125.32 173.909 125.297C173.876 125.273 173.85 125.241 173.835 125.203C173.732 124.911 173.624 124.615 173.52 124.32C173.511 124.295 173.507 124.269 173.508 124.243C173.509 124.217 173.515 124.191 173.526 124.167C173.537 124.143 173.553 124.122 173.573 124.104C173.592 124.087 173.615 124.073 173.64 124.064C173.689 124.048 173.744 124.051 173.791 124.073C173.839 124.095 173.876 124.135 173.895 124.184C173.999 124.48 174.107 124.775 174.211 125.067C174.22 125.091 174.224 125.118 174.223 125.144C174.222 125.17 174.215 125.196 174.204 125.22C174.193 125.243 174.177 125.265 174.158 125.282C174.138 125.3 174.116 125.314 174.091 125.322C174.069 125.331 174.046 125.335 174.023 125.334ZM174.678 127.092C174.638 127.092 174.598 127.079 174.565 127.057C174.531 127.034 174.505 127.001 174.49 126.964C174.382 126.672 174.271 126.377 174.163 126.085C174.153 126.061 174.149 126.034 174.149 126.008C174.15 125.981 174.156 125.955 174.167 125.931C174.178 125.907 174.193 125.885 174.212 125.867C174.231 125.849 174.254 125.835 174.279 125.826C174.303 125.816 174.329 125.812 174.356 125.813C174.382 125.814 174.408 125.82 174.432 125.831C174.456 125.843 174.477 125.858 174.495 125.878C174.512 125.898 174.526 125.921 174.534 125.945C174.646 126.237 174.754 126.529 174.866 126.82C174.883 126.87 174.881 126.925 174.859 126.973C174.838 127.021 174.799 127.059 174.75 127.08C174.727 127.087 174.702 127.092 174.678 127.092ZM175.429 128.825C175.406 128.833 175.381 128.837 175.357 128.837C175.317 128.838 175.277 128.826 175.244 128.804C175.21 128.782 175.184 128.75 175.169 128.713C175.053 128.426 174.942 128.134 174.826 127.839C174.816 127.814 174.812 127.788 174.812 127.761C174.813 127.735 174.819 127.709 174.83 127.684C174.84 127.66 174.856 127.638 174.875 127.62C174.894 127.602 174.917 127.588 174.941 127.578C174.966 127.569 174.992 127.564 175.019 127.565C175.045 127.566 175.071 127.572 175.095 127.583C175.12 127.593 175.141 127.609 175.16 127.628C175.178 127.647 175.192 127.67 175.201 127.695C175.313 127.986 175.425 128.278 175.541 128.565C175.551 128.59 175.555 128.616 175.555 128.642C175.555 128.668 175.549 128.694 175.539 128.719C175.529 128.743 175.514 128.765 175.495 128.783C175.476 128.801 175.453 128.815 175.429 128.825ZM176.14 130.558C176.115 130.569 176.087 130.575 176.06 130.574C176.02 130.574 175.982 130.563 175.949 130.541C175.916 130.519 175.891 130.487 175.876 130.45C175.756 130.167 175.637 129.875 175.521 129.584C175.501 129.535 175.501 129.481 175.521 129.432C175.542 129.384 175.58 129.345 175.629 129.325C175.678 129.305 175.732 129.305 175.781 129.325C175.829 129.345 175.868 129.384 175.888 129.432C176.008 129.724 176.128 130.011 176.248 130.299C176.267 130.348 176.267 130.402 176.246 130.45C176.226 130.499 176.188 130.538 176.14 130.558ZM176.883 132.28C176.858 132.291 176.83 132.296 176.803 132.296C176.764 132.296 176.727 132.285 176.694 132.265C176.662 132.244 176.636 132.215 176.619 132.18C176.495 131.896 176.367 131.609 176.244 131.317C176.223 131.269 176.222 131.213 176.241 131.164C176.261 131.115 176.299 131.075 176.348 131.054C176.396 131.033 176.451 131.032 176.501 131.051C176.55 131.071 176.59 131.109 176.611 131.157C176.735 131.449 176.859 131.733 176.983 132.016C176.994 132.04 177 132.066 177.001 132.092C177.002 132.118 176.997 132.144 176.988 132.169C176.979 132.194 176.965 132.216 176.947 132.235C176.928 132.254 176.907 132.269 176.883 132.28ZM177.669 133.981C177.642 133.994 177.612 134.001 177.582 134.001C177.544 134 177.507 133.989 177.475 133.968C177.444 133.948 177.418 133.919 177.402 133.885C177.27 133.61 177.138 133.322 177.006 133.035C176.995 133.011 176.989 132.986 176.987 132.959C176.986 132.933 176.99 132.907 176.999 132.883C177.008 132.858 177.021 132.835 177.039 132.816C177.057 132.797 177.078 132.782 177.102 132.771C177.126 132.76 177.153 132.753 177.179 132.752C177.206 132.751 177.232 132.755 177.257 132.765C177.282 132.774 177.305 132.788 177.324 132.806C177.344 132.825 177.359 132.846 177.37 132.871C177.498 133.154 177.63 133.438 177.765 133.714C177.788 133.762 177.791 133.817 177.773 133.867C177.755 133.917 177.718 133.958 177.669 133.981ZM178.512 135.659C178.482 135.671 178.449 135.678 178.416 135.679C178.38 135.679 178.344 135.669 178.313 135.65C178.282 135.631 178.257 135.603 178.241 135.571C178.097 135.299 177.957 135.02 177.813 134.732C177.802 134.708 177.795 134.683 177.793 134.657C177.792 134.63 177.795 134.604 177.804 134.579C177.812 134.554 177.826 134.531 177.843 134.512C177.86 134.492 177.882 134.476 177.905 134.464C177.929 134.453 177.954 134.446 177.981 134.445C178.007 134.443 178.033 134.446 178.058 134.455C178.083 134.463 178.106 134.477 178.125 134.494C178.145 134.512 178.161 134.533 178.173 134.556C178.312 134.84 178.456 135.115 178.596 135.387C178.621 135.434 178.625 135.489 178.61 135.54C178.594 135.591 178.559 135.633 178.512 135.659ZM179.423 137.296C179.392 137.312 179.358 137.32 179.323 137.32C179.288 137.321 179.254 137.312 179.224 137.296C179.194 137.279 179.169 137.254 179.151 137.224C178.995 136.957 178.84 136.685 178.684 136.401C178.659 136.355 178.653 136.3 178.668 136.249C178.683 136.199 178.718 136.156 178.764 136.13C178.811 136.105 178.865 136.099 178.916 136.114C178.967 136.129 179.01 136.163 179.035 136.21C179.187 136.489 179.343 136.761 179.495 137.021C179.522 137.067 179.529 137.122 179.516 137.173C179.502 137.225 179.469 137.269 179.423 137.296ZM180.437 138.87C180.404 138.892 180.365 138.905 180.325 138.906C180.293 138.906 180.261 138.898 180.232 138.882C180.204 138.867 180.18 138.845 180.162 138.818C179.986 138.57 179.814 138.307 179.638 138.031C179.61 137.986 179.601 137.932 179.613 137.88C179.624 137.828 179.656 137.783 179.701 137.754C179.746 137.726 179.8 137.716 179.852 137.728C179.904 137.739 179.949 137.771 179.978 137.815C180.146 138.087 180.317 138.346 180.489 138.594C180.519 138.638 180.53 138.691 180.52 138.743C180.51 138.794 180.48 138.84 180.437 138.87ZM181.611 140.327C181.572 140.363 181.52 140.381 181.467 140.379C181.414 140.377 181.364 140.354 181.328 140.316C181.128 140.092 180.921 139.848 180.721 139.585C180.704 139.564 180.692 139.54 180.685 139.515C180.678 139.489 180.676 139.463 180.679 139.437C180.682 139.41 180.691 139.385 180.704 139.362C180.717 139.339 180.734 139.319 180.755 139.303C180.776 139.287 180.8 139.275 180.826 139.268C180.851 139.261 180.878 139.26 180.904 139.263C180.93 139.267 180.955 139.276 180.978 139.289C181.001 139.302 181.02 139.32 181.036 139.341C181.232 139.593 181.432 139.832 181.623 140.048C181.641 140.067 181.655 140.089 181.664 140.114C181.673 140.138 181.677 140.164 181.676 140.19C181.675 140.216 181.669 140.242 181.657 140.265C181.646 140.289 181.631 140.31 181.611 140.327ZM183.053 141.498C183.025 141.543 182.981 141.575 182.929 141.588C182.878 141.6 182.823 141.592 182.778 141.566C182.504 141.397 182.245 141.203 182.007 140.986C181.987 140.97 181.971 140.949 181.959 140.926C181.947 140.902 181.94 140.877 181.938 140.851C181.937 140.825 181.94 140.799 181.948 140.774C181.957 140.749 181.97 140.727 181.987 140.707C182.022 140.667 182.071 140.642 182.125 140.639C182.178 140.635 182.23 140.652 182.27 140.687C182.492 140.886 182.731 141.066 182.985 141.222C183.008 141.236 183.028 141.254 183.043 141.275C183.059 141.296 183.07 141.32 183.076 141.346C183.083 141.371 183.084 141.398 183.08 141.424C183.076 141.45 183.067 141.475 183.053 141.498ZM184.643 142.201C184.631 142.201 184.619 142.197 184.607 142.197C184.291 142.139 183.978 142.06 183.672 141.961C183.622 141.944 183.58 141.909 183.556 141.862C183.532 141.814 183.528 141.76 183.545 141.709C183.562 141.66 183.598 141.619 183.645 141.595C183.691 141.571 183.746 141.566 183.796 141.582C184.085 141.675 184.38 141.748 184.679 141.801C184.728 141.811 184.772 141.838 184.802 141.878C184.832 141.918 184.846 141.967 184.841 142.017C184.837 142.067 184.814 142.113 184.777 142.147C184.741 142.181 184.693 142.2 184.643 142.201ZM186.504 142.368H186.5C186.168 142.364 185.853 142.348 185.553 142.32C185.527 142.319 185.501 142.312 185.478 142.3C185.454 142.288 185.433 142.271 185.416 142.251C185.399 142.231 185.386 142.208 185.378 142.183C185.37 142.158 185.367 142.131 185.37 142.105C185.372 142.079 185.379 142.053 185.391 142.03C185.403 142.007 185.419 141.986 185.439 141.969C185.46 141.952 185.483 141.94 185.508 141.932C185.533 141.925 185.559 141.922 185.585 141.925C185.877 141.949 186.184 141.965 186.508 141.969C186.56 141.972 186.61 141.994 186.646 142.032C186.683 142.07 186.703 142.12 186.704 142.173C186.703 142.225 186.681 142.275 186.644 142.311C186.607 142.348 186.556 142.368 186.504 142.368ZM188.393 142.304C188.07 142.328 187.754 142.348 187.447 142.36H187.439C187.386 142.36 187.336 142.34 187.299 142.303C187.261 142.267 187.24 142.217 187.239 142.165C187.238 142.112 187.257 142.062 187.293 142.024C187.329 141.986 187.378 141.963 187.431 141.961C187.734 141.949 188.042 141.929 188.361 141.905C188.413 141.902 188.465 141.919 188.505 141.954C188.544 141.988 188.569 142.037 188.573 142.089C188.577 142.141 188.561 142.193 188.527 142.233C188.493 142.274 188.445 142.299 188.393 142.304ZM190.266 142.089C189.951 142.137 189.639 142.177 189.332 142.213H189.308C189.259 142.212 189.212 142.195 189.175 142.162C189.138 142.13 189.114 142.085 189.108 142.037C189.103 141.984 189.118 141.931 189.151 141.889C189.183 141.848 189.231 141.82 189.284 141.813C189.587 141.781 189.895 141.741 190.206 141.693C190.259 141.687 190.313 141.701 190.355 141.733C190.398 141.765 190.426 141.812 190.434 141.865C190.441 141.917 190.428 141.97 190.396 142.012C190.365 142.054 190.318 142.081 190.266 142.089ZM192.123 141.773C191.812 141.833 191.5 141.889 191.197 141.941C191.185 141.944 191.173 141.946 191.161 141.945C191.114 141.945 191.069 141.928 191.034 141.898C190.998 141.868 190.974 141.827 190.965 141.781C190.957 141.729 190.969 141.675 191 141.632C191.03 141.589 191.077 141.559 191.129 141.55C191.433 141.498 191.74 141.442 192.048 141.382C192.1 141.373 192.154 141.384 192.198 141.414C192.241 141.444 192.272 141.49 192.283 141.542C192.293 141.593 192.281 141.647 192.251 141.69C192.221 141.734 192.175 141.764 192.123 141.773ZM193.965 141.386C193.657 141.454 193.35 141.522 193.046 141.586C193.032 141.589 193.017 141.59 193.002 141.59C192.953 141.59 192.905 141.572 192.868 141.54C192.831 141.507 192.808 141.461 192.803 141.412C192.798 141.363 192.812 141.314 192.841 141.274C192.87 141.235 192.914 141.207 192.962 141.198C193.266 141.134 193.569 141.066 193.873 140.994C193.924 140.983 193.978 140.992 194.023 141.021C194.068 141.049 194.1 141.093 194.112 141.145C194.124 141.196 194.115 141.25 194.088 141.296C194.06 141.341 194.016 141.373 193.965 141.386ZM195.79 140.934C195.482 141.014 195.179 141.09 194.879 141.166C194.864 141.171 194.848 141.173 194.831 141.174C194.782 141.174 194.735 141.156 194.698 141.124C194.661 141.091 194.638 141.046 194.632 140.998C194.626 140.949 194.638 140.9 194.666 140.859C194.694 140.819 194.736 140.79 194.783 140.779C195.083 140.703 195.386 140.627 195.69 140.551C195.715 140.544 195.742 140.542 195.768 140.545C195.793 140.548 195.819 140.557 195.841 140.57C195.864 140.583 195.884 140.6 195.9 140.621C195.915 140.642 195.927 140.666 195.934 140.691C195.94 140.716 195.942 140.743 195.938 140.769C195.935 140.795 195.926 140.82 195.913 140.843C195.899 140.865 195.882 140.885 195.86 140.901C195.839 140.917 195.815 140.928 195.79 140.934ZM197.599 140.439C197.3 140.527 196.996 140.611 196.697 140.695C196.679 140.698 196.662 140.7 196.645 140.699C196.596 140.699 196.549 140.682 196.513 140.65C196.477 140.618 196.453 140.574 196.447 140.526C196.44 140.478 196.452 140.429 196.479 140.389C196.505 140.349 196.546 140.32 196.593 140.307C196.892 140.228 197.192 140.144 197.491 140.056C197.517 140.049 197.543 140.046 197.569 140.049C197.595 140.052 197.62 140.06 197.643 140.073C197.666 140.086 197.687 140.103 197.703 140.124C197.719 140.144 197.731 140.168 197.738 140.193C197.746 140.219 197.748 140.245 197.744 140.271C197.741 140.297 197.733 140.322 197.72 140.345C197.707 140.368 197.69 140.388 197.669 140.404C197.648 140.421 197.624 140.432 197.599 140.439ZM199.4 139.908C199.101 140 198.801 140.092 198.502 140.18C198.483 140.184 198.465 140.187 198.446 140.188C198.402 140.188 198.36 140.174 198.325 140.148C198.291 140.122 198.266 140.086 198.254 140.044C198.247 140.019 198.244 139.992 198.247 139.966C198.25 139.94 198.258 139.915 198.27 139.892C198.283 139.869 198.3 139.848 198.321 139.832C198.341 139.816 198.365 139.803 198.39 139.796C198.689 139.708 198.985 139.617 199.285 139.529C199.335 139.513 199.389 139.519 199.436 139.543C199.482 139.568 199.517 139.61 199.532 139.66C199.548 139.711 199.542 139.765 199.518 139.812C199.493 139.858 199.451 139.893 199.4 139.908ZM201.194 139.341C200.898 139.437 200.599 139.533 200.303 139.628C200.284 139.635 200.263 139.638 200.243 139.636C200.196 139.637 200.15 139.62 200.113 139.59C200.077 139.559 200.053 139.517 200.045 139.47C200.037 139.423 200.047 139.375 200.071 139.335C200.096 139.294 200.134 139.264 200.179 139.249C200.479 139.153 200.774 139.057 201.074 138.961C201.124 138.946 201.178 138.951 201.225 138.975C201.272 138.998 201.308 139.04 201.325 139.089C201.334 139.114 201.337 139.141 201.334 139.167C201.332 139.194 201.325 139.219 201.312 139.243C201.3 139.266 201.283 139.287 201.263 139.304C201.243 139.321 201.219 139.333 201.194 139.341ZM202.975 138.75L202.088 139.049C202.068 139.056 202.046 139.058 202.024 139.057C201.977 139.058 201.93 139.042 201.894 139.011C201.857 138.981 201.833 138.938 201.825 138.891C201.817 138.844 201.827 138.796 201.852 138.755C201.876 138.715 201.915 138.684 201.96 138.67L202.847 138.37C202.897 138.353 202.952 138.357 203 138.38C203.048 138.403 203.085 138.444 203.103 138.494C203.118 138.545 203.114 138.6 203.09 138.648C203.066 138.695 203.025 138.732 202.975 138.75ZM204.748 138.131C204.457 138.235 204.161 138.339 203.862 138.442C203.841 138.45 203.819 138.454 203.798 138.454C203.756 138.454 203.715 138.441 203.682 138.417C203.648 138.393 203.623 138.358 203.61 138.319C203.601 138.294 203.597 138.268 203.598 138.241C203.599 138.215 203.605 138.189 203.616 138.166C203.628 138.142 203.643 138.121 203.663 138.103C203.682 138.085 203.705 138.072 203.73 138.063C204.029 137.963 204.321 137.855 204.612 137.751C204.663 137.734 204.717 137.737 204.765 137.76C204.813 137.783 204.85 137.824 204.868 137.874C204.885 137.924 204.883 137.979 204.861 138.027C204.838 138.075 204.798 138.112 204.748 138.131ZM206.514 137.488C206.222 137.596 205.93 137.703 205.631 137.811C205.609 137.819 205.586 137.823 205.563 137.823C205.522 137.824 205.482 137.811 205.448 137.788C205.414 137.764 205.389 137.73 205.375 137.691C205.358 137.642 205.361 137.587 205.383 137.539C205.405 137.491 205.446 137.454 205.495 137.436C205.791 137.328 206.086 137.22 206.374 137.112C206.424 137.094 206.478 137.097 206.526 137.119C206.574 137.142 206.611 137.182 206.629 137.232C206.639 137.256 206.644 137.282 206.643 137.309C206.642 137.335 206.637 137.361 206.626 137.385C206.615 137.408 206.599 137.43 206.58 137.448C206.561 137.465 206.538 137.479 206.514 137.488ZM208.267 136.825C207.983 136.937 207.688 137.048 207.392 137.16C207.369 137.168 207.345 137.172 207.32 137.172C207.28 137.172 207.24 137.16 207.207 137.137C207.173 137.114 207.147 137.082 207.133 137.044C207.115 136.995 207.118 136.94 207.139 136.892C207.161 136.843 207.2 136.805 207.248 136.785C207.548 136.673 207.839 136.561 208.127 136.453C208.151 136.444 208.177 136.44 208.203 136.441C208.229 136.442 208.255 136.448 208.279 136.458C208.303 136.469 208.324 136.484 208.342 136.503C208.36 136.522 208.373 136.545 208.383 136.569C208.392 136.594 208.396 136.62 208.395 136.646C208.394 136.672 208.388 136.697 208.378 136.721C208.367 136.745 208.352 136.766 208.333 136.784C208.314 136.802 208.291 136.816 208.267 136.825ZM210.016 136.142C209.733 136.254 209.445 136.369 209.146 136.485C209.122 136.497 209.096 136.502 209.07 136.501C209.03 136.501 208.991 136.489 208.958 136.466C208.925 136.443 208.9 136.411 208.886 136.373C208.867 136.324 208.868 136.269 208.889 136.221C208.91 136.172 208.949 136.134 208.998 136.114C209.297 135.998 209.589 135.882 209.872 135.77C209.921 135.752 209.975 135.753 210.023 135.774C210.071 135.795 210.109 135.834 210.128 135.882C210.138 135.907 210.144 135.933 210.144 135.959C210.143 135.986 210.138 136.012 210.128 136.036C210.117 136.06 210.102 136.082 210.083 136.1C210.064 136.118 210.041 136.133 210.016 136.142ZM211.762 135.443C211.482 135.555 211.19 135.675 210.891 135.794C210.867 135.805 210.841 135.81 210.815 135.81C210.769 135.81 210.724 135.794 210.689 135.765C210.653 135.735 210.629 135.695 210.62 135.65C210.611 135.605 210.618 135.558 210.64 135.517C210.662 135.476 210.697 135.445 210.739 135.427C211.043 135.303 211.33 135.187 211.61 135.071C211.659 135.052 211.713 135.053 211.761 135.074C211.81 135.095 211.848 135.134 211.868 135.183C211.888 135.231 211.888 135.286 211.868 135.334C211.848 135.383 211.81 135.422 211.762 135.443ZM213.495 134.72C213.231 134.832 212.94 134.956 212.628 135.083C212.604 135.094 212.578 135.1 212.552 135.099C212.513 135.099 212.474 135.087 212.442 135.065C212.409 135.043 212.384 135.012 212.369 134.976C212.358 134.951 212.353 134.926 212.353 134.899C212.353 134.873 212.358 134.847 212.368 134.823C212.378 134.799 212.393 134.777 212.411 134.759C212.43 134.74 212.452 134.726 212.476 134.716C212.788 134.588 213.076 134.464 213.339 134.353C213.388 134.332 213.444 134.332 213.493 134.352C213.542 134.373 213.582 134.411 213.603 134.46C213.613 134.484 213.619 134.51 213.619 134.537C213.619 134.563 213.614 134.589 213.604 134.613C213.594 134.637 213.579 134.659 213.56 134.678C213.542 134.696 213.519 134.71 213.495 134.72ZM215.224 133.977C215.053 134.053 214.757 134.181 214.362 134.353C214.337 134.364 214.309 134.369 214.282 134.368C214.235 134.369 214.19 134.353 214.155 134.324C214.119 134.294 214.094 134.254 214.085 134.208C214.076 134.163 214.083 134.116 214.105 134.075C214.127 134.034 214.163 134.002 214.206 133.985C214.597 133.817 214.893 133.69 215.065 133.614C215.088 133.603 215.114 133.597 215.141 133.596C215.167 133.595 215.193 133.6 215.217 133.609C215.242 133.618 215.264 133.633 215.283 133.651C215.303 133.669 215.318 133.69 215.328 133.715C215.339 133.739 215.345 133.765 215.345 133.791C215.346 133.817 215.341 133.843 215.331 133.868C215.321 133.892 215.307 133.914 215.289 133.933C215.27 133.952 215.248 133.967 215.224 133.977ZM177.606 99.0903C177.222 99.2781 176.835 99.4498 176.447 99.6255C176.1 99.7853 175.752 99.933 175.401 100.081C175.645 100.608 175.888 101.135 176.104 101.674C176.347 102.25 176.571 102.829 176.779 103.416C176.994 103.999 177.186 104.594 177.362 105.193C177.529 105.763 177.659 106.343 177.749 106.93C177.991 107.017 178.244 107.066 178.5 107.074C178.793 107.08 179.085 107.044 179.367 106.966C179.653 106.885 179.928 106.77 180.186 106.623C180.447 106.469 180.694 106.292 180.925 106.096C180.381 103.533 179.245 101.134 177.606 99.0903ZM161.179 119.32L159.601 115.861C159.585 115.853 159.07 114.695 159.07 114.695L156.993 110.054C156.31 108.504 155.623 106.954 154.96 105.393C154.96 105.393 125.269 139.864 109.174 166.791C109.174 166.791 112.784 169.523 116.531 172.071V172.067L117.05 171.288C117.065 171.266 117.084 171.248 117.106 171.233C117.128 171.219 117.153 171.209 117.179 171.204C117.205 171.199 117.232 171.2 117.257 171.205C117.283 171.211 117.308 171.221 117.329 171.236C117.351 171.251 117.37 171.269 117.385 171.291C117.399 171.313 117.409 171.337 117.414 171.363C117.419 171.389 117.418 171.415 117.413 171.441C117.407 171.466 117.397 171.491 117.381 171.512L116.862 172.291L116.858 172.295C120.029 174.436 123.22 176.385 124.339 176.385C124.339 176.385 140.59 149.921 143.374 145.899C146.162 141.873 161.634 127.327 163.335 123.925C162.6 122.399 161.89 120.857 161.179 119.32ZM118.424 169.958L117.905 170.733C117.886 170.761 117.862 170.784 117.832 170.8C117.803 170.816 117.77 170.825 117.737 170.825C117.698 170.825 117.66 170.812 117.629 170.789C117.607 170.775 117.588 170.756 117.573 170.735C117.558 170.713 117.548 170.689 117.543 170.663C117.537 170.637 117.537 170.611 117.543 170.585C117.548 170.559 117.558 170.535 117.573 170.513L118.092 169.735C118.122 169.691 118.168 169.66 118.221 169.65C118.273 169.64 118.327 169.65 118.372 169.679C118.394 169.694 118.412 169.713 118.427 169.735C118.441 169.757 118.451 169.782 118.456 169.808C118.461 169.834 118.461 169.86 118.455 169.886C118.449 169.912 118.439 169.937 118.424 169.958ZM119.47 168.405L118.947 169.18C118.929 169.207 118.905 169.229 118.876 169.245C118.848 169.26 118.816 169.268 118.783 169.267C118.743 169.269 118.704 169.258 118.671 169.235C118.627 169.206 118.597 169.161 118.586 169.109C118.576 169.058 118.586 169.004 118.616 168.96L119.139 168.181C119.168 168.137 119.213 168.107 119.265 168.096C119.317 168.086 119.37 168.096 119.414 168.125C119.458 168.155 119.489 168.201 119.499 168.254C119.509 168.306 119.499 168.36 119.47 168.405ZM120.513 166.851L119.989 167.626C119.972 167.653 119.947 167.675 119.919 167.69C119.89 167.706 119.858 167.714 119.826 167.714C119.786 167.716 119.747 167.704 119.714 167.682C119.67 167.652 119.64 167.606 119.629 167.553C119.619 167.501 119.629 167.447 119.658 167.402L120.181 166.627C120.21 166.584 120.256 166.553 120.307 166.543C120.359 166.532 120.413 166.543 120.457 166.572C120.501 166.602 120.531 166.648 120.541 166.7C120.552 166.752 120.541 166.806 120.513 166.851ZM121.555 165.293L121.032 166.072C121.014 166.099 120.99 166.122 120.961 166.137C120.932 166.152 120.9 166.16 120.868 166.16C120.829 166.16 120.79 166.149 120.756 166.128C120.712 166.098 120.682 166.052 120.672 166C120.661 165.948 120.671 165.893 120.7 165.849L121.223 165.074C121.238 165.052 121.256 165.033 121.278 165.018C121.3 165.003 121.324 164.993 121.35 164.988C121.375 164.982 121.402 164.982 121.428 164.987C121.454 164.992 121.478 165.002 121.5 165.017C121.522 165.031 121.541 165.05 121.555 165.072C121.57 165.093 121.58 165.118 121.585 165.144C121.59 165.169 121.59 165.196 121.585 165.222C121.58 165.247 121.57 165.272 121.555 165.293ZM122.597 163.74L122.074 164.519C122.06 164.54 122.041 164.559 122.019 164.574C121.998 164.588 121.973 164.598 121.947 164.603C121.922 164.608 121.895 164.608 121.87 164.602C121.844 164.596 121.82 164.586 121.799 164.571C121.755 164.541 121.724 164.496 121.714 164.444C121.703 164.393 121.714 164.339 121.743 164.295L122.266 163.52C122.28 163.498 122.299 163.479 122.32 163.464C122.342 163.45 122.366 163.439 122.392 163.434C122.418 163.429 122.444 163.429 122.47 163.434C122.495 163.439 122.52 163.45 122.542 163.464C122.585 163.493 122.616 163.539 122.626 163.59C122.637 163.642 122.627 163.696 122.597 163.74ZM123.64 162.186L123.121 162.965C123.102 162.992 123.076 163.014 123.047 163.029C123.018 163.044 122.986 163.053 122.953 163.053C122.917 163.052 122.882 163.042 122.851 163.023C122.82 163.004 122.795 162.978 122.778 162.946C122.762 162.914 122.754 162.878 122.756 162.842C122.758 162.806 122.769 162.771 122.789 162.741L123.308 161.963C123.338 161.919 123.384 161.89 123.436 161.88C123.487 161.87 123.541 161.881 123.584 161.911C123.628 161.94 123.658 161.986 123.669 162.037C123.679 162.089 123.669 162.142 123.64 162.186ZM124.682 160.632L124.163 161.407C124.145 161.435 124.12 161.458 124.091 161.474C124.061 161.49 124.029 161.499 123.995 161.499C123.955 161.498 123.916 161.486 123.883 161.463C123.862 161.449 123.843 161.43 123.828 161.408C123.814 161.387 123.804 161.362 123.799 161.337C123.794 161.311 123.794 161.284 123.8 161.259C123.806 161.233 123.816 161.209 123.832 161.188L124.351 160.409C124.381 160.365 124.427 160.335 124.479 160.324C124.531 160.314 124.586 160.324 124.63 160.353C124.652 160.368 124.671 160.387 124.685 160.409C124.7 160.431 124.71 160.456 124.715 160.482C124.719 160.508 124.719 160.535 124.714 160.56C124.708 160.586 124.697 160.611 124.682 160.632ZM125.725 159.079L125.205 159.854C125.191 159.876 125.173 159.895 125.151 159.91C125.129 159.925 125.105 159.935 125.079 159.941C125.053 159.946 125.027 159.946 125.001 159.941C124.975 159.937 124.95 159.926 124.928 159.912C124.906 159.897 124.888 159.879 124.873 159.857C124.858 159.835 124.848 159.81 124.843 159.784C124.838 159.759 124.838 159.732 124.843 159.706C124.849 159.68 124.859 159.656 124.874 159.634L125.393 158.855C125.423 158.811 125.469 158.781 125.522 158.771C125.574 158.76 125.628 158.77 125.673 158.799C125.695 158.814 125.713 158.833 125.728 158.855C125.742 158.877 125.752 158.902 125.757 158.928C125.762 158.954 125.761 158.981 125.756 159.007C125.75 159.033 125.74 159.057 125.725 159.079ZM126.771 157.521L126.248 158.3C126.229 158.327 126.204 158.349 126.175 158.364C126.145 158.379 126.113 158.388 126.08 158.388C126.042 158.389 126.004 158.378 125.972 158.356C125.928 158.326 125.898 158.28 125.888 158.228C125.877 158.175 125.887 158.121 125.916 158.076L126.44 157.302C126.469 157.258 126.514 157.227 126.566 157.216C126.617 157.206 126.671 157.217 126.715 157.246C126.759 157.275 126.79 157.32 126.8 157.372C126.811 157.424 126.8 157.477 126.771 157.521ZM127.813 155.968L127.29 156.746C127.272 156.773 127.248 156.795 127.219 156.81C127.191 156.826 127.159 156.834 127.127 156.834C127.087 156.834 127.048 156.823 127.015 156.802C126.971 156.772 126.94 156.726 126.93 156.674C126.92 156.622 126.93 156.568 126.959 156.523L127.482 155.748C127.511 155.704 127.557 155.674 127.608 155.663C127.66 155.653 127.713 155.663 127.757 155.692C127.801 155.722 127.832 155.767 127.842 155.818C127.853 155.87 127.842 155.924 127.813 155.968ZM128.856 154.414L128.333 155.193C128.315 155.22 128.29 155.242 128.262 155.257C128.233 155.273 128.201 155.281 128.169 155.281C128.129 155.281 128.09 155.268 128.057 155.245C128.013 155.216 127.983 155.17 127.972 155.118C127.962 155.067 127.972 155.013 128.001 154.969L128.524 154.19C128.554 154.147 128.6 154.118 128.652 154.108C128.703 154.098 128.757 154.109 128.8 154.139C128.844 154.168 128.874 154.213 128.885 154.265C128.895 154.316 128.885 154.37 128.856 154.414ZM129.898 152.86L129.375 153.639C129.361 153.661 129.342 153.68 129.32 153.694C129.299 153.709 129.274 153.719 129.248 153.724C129.223 153.729 129.196 153.728 129.171 153.723C129.145 153.717 129.121 153.706 129.1 153.691C129.056 153.662 129.025 153.616 129.015 153.565C129.004 153.513 129.015 153.459 129.044 153.415L129.567 152.637C129.581 152.615 129.6 152.596 129.622 152.582C129.644 152.567 129.668 152.557 129.694 152.553C129.719 152.548 129.746 152.548 129.771 152.554C129.797 152.559 129.821 152.57 129.842 152.585C129.886 152.614 129.917 152.659 129.927 152.711C129.938 152.763 129.927 152.816 129.898 152.86ZM130.941 151.307L130.421 152.082C130.403 152.109 130.378 152.133 130.349 152.149C130.32 152.165 130.287 152.173 130.254 152.173C130.214 152.173 130.175 152.161 130.142 152.137C130.098 152.108 130.067 152.063 130.057 152.011C130.046 151.96 130.057 151.906 130.086 151.862L130.609 151.083C130.639 151.039 130.684 151.009 130.736 150.999C130.787 150.988 130.841 150.998 130.885 151.027C130.929 151.057 130.959 151.103 130.97 151.156C130.98 151.208 130.97 151.262 130.941 151.307ZM131.983 149.753L131.464 150.528C131.446 150.555 131.421 150.578 131.391 150.593C131.362 150.609 131.329 150.616 131.296 150.616C131.256 150.617 131.217 150.606 131.184 150.584C131.163 150.569 131.144 150.551 131.129 150.529C131.115 150.507 131.105 150.483 131.1 150.457C131.095 150.431 131.096 150.405 131.101 150.379C131.107 150.354 131.117 150.33 131.132 150.308L131.652 149.529C131.666 149.507 131.685 149.488 131.707 149.473C131.729 149.458 131.753 149.448 131.779 149.443C131.805 149.438 131.832 149.438 131.858 149.443C131.884 149.448 131.909 149.458 131.931 149.473C131.953 149.488 131.972 149.507 131.986 149.529C132.001 149.551 132.011 149.576 132.015 149.602C132.02 149.628 132.02 149.655 132.014 149.681C132.009 149.707 131.998 149.731 131.983 149.753ZM133.026 148.195L132.506 148.974C132.487 149.001 132.462 149.023 132.433 149.038C132.404 149.054 132.371 149.062 132.339 149.062C132.299 149.061 132.261 149.05 132.227 149.03C132.205 149.015 132.186 148.996 132.172 148.974C132.157 148.952 132.147 148.927 132.142 148.901C132.138 148.875 132.138 148.848 132.144 148.823C132.149 148.797 132.16 148.772 132.175 148.751L132.694 147.976C132.724 147.932 132.77 147.902 132.822 147.891C132.875 147.881 132.929 147.891 132.974 147.92C132.996 147.934 133.014 147.953 133.029 147.975C133.043 147.996 133.053 148.021 133.058 148.047C133.063 148.072 133.063 148.099 133.057 148.124C133.051 148.15 133.041 148.174 133.026 148.195ZM134.068 146.642L133.549 147.421C133.53 147.447 133.505 147.469 133.475 147.485C133.446 147.5 133.414 147.508 133.381 147.508C133.343 147.508 133.306 147.497 133.273 147.477C133.251 147.462 133.232 147.443 133.217 147.421C133.202 147.399 133.192 147.374 133.187 147.348C133.182 147.322 133.182 147.296 133.187 147.27C133.192 147.244 133.202 147.219 133.217 147.197L133.736 146.422C133.767 146.378 133.813 146.348 133.865 146.337C133.917 146.327 133.971 146.337 134.016 146.366C134.038 146.381 134.057 146.399 134.071 146.421C134.086 146.443 134.096 146.467 134.101 146.493C134.105 146.519 134.105 146.545 134.099 146.571C134.094 146.596 134.083 146.62 134.068 146.642ZM135.114 145.088L134.591 145.867C134.573 145.894 134.549 145.916 134.52 145.931C134.491 145.946 134.46 145.954 134.427 145.955C134.387 145.955 134.348 145.943 134.316 145.919C134.272 145.89 134.241 145.844 134.231 145.793C134.22 145.741 134.231 145.687 134.26 145.643L134.783 144.864C134.813 144.821 134.859 144.792 134.91 144.782C134.962 144.773 135.015 144.784 135.059 144.813C135.102 144.842 135.133 144.888 135.143 144.939C135.153 144.991 135.143 145.044 135.114 145.088ZM136.157 143.535L135.634 144.313C135.615 144.34 135.591 144.362 135.562 144.377C135.534 144.393 135.502 144.401 135.47 144.401C135.43 144.402 135.39 144.389 135.358 144.365C135.314 144.336 135.283 144.291 135.273 144.239C135.263 144.187 135.273 144.134 135.302 144.09L135.825 143.311C135.84 143.289 135.858 143.27 135.88 143.256C135.902 143.241 135.926 143.231 135.952 143.227C135.978 143.222 136.004 143.222 136.03 143.228C136.055 143.233 136.079 143.244 136.101 143.259C136.145 143.288 136.175 143.334 136.186 143.385C136.196 143.437 136.186 143.491 136.157 143.535ZM137.199 141.981L136.676 142.756C136.659 142.783 136.635 142.806 136.606 142.821C136.577 142.837 136.545 142.845 136.512 142.844C136.472 142.845 136.433 142.834 136.4 142.812C136.357 142.782 136.326 142.737 136.316 142.685C136.305 142.634 136.316 142.58 136.344 142.536L136.868 141.757C136.897 141.713 136.942 141.683 136.994 141.673C137.046 141.662 137.099 141.672 137.143 141.701C137.187 141.731 137.218 141.778 137.228 141.83C137.238 141.882 137.228 141.936 137.199 141.981ZM138.381 140.563L137.766 141.27C137.749 141.292 137.726 141.31 137.701 141.322C137.675 141.333 137.647 141.339 137.619 141.338C137.58 141.338 137.543 141.328 137.511 141.308C137.478 141.287 137.453 141.258 137.436 141.223C137.42 141.189 137.415 141.15 137.42 141.112C137.426 141.075 137.442 141.039 137.467 141.01L138.078 140.303C138.112 140.263 138.161 140.239 138.214 140.234C138.267 140.23 138.319 140.247 138.359 140.282C138.399 140.316 138.424 140.365 138.428 140.418C138.433 140.471 138.416 140.523 138.381 140.563ZM139.607 139.149L138.992 139.856C138.974 139.878 138.952 139.895 138.926 139.907C138.901 139.918 138.873 139.924 138.845 139.924C138.796 139.925 138.749 139.908 138.713 139.876C138.673 139.841 138.648 139.792 138.644 139.738C138.641 139.685 138.658 139.633 138.693 139.593L139.304 138.886C139.34 138.846 139.389 138.822 139.442 138.819C139.495 138.815 139.547 138.832 139.588 138.866C139.628 138.901 139.652 138.95 139.656 139.003C139.66 139.057 139.642 139.109 139.607 139.149ZM140.834 137.735L140.219 138.442C140.2 138.464 140.178 138.481 140.152 138.493C140.127 138.504 140.099 138.51 140.071 138.51C140.022 138.511 139.976 138.494 139.939 138.462C139.899 138.427 139.874 138.378 139.871 138.325C139.867 138.271 139.884 138.219 139.919 138.179L140.53 137.472C140.565 137.431 140.615 137.407 140.668 137.403C140.721 137.399 140.773 137.417 140.814 137.452C140.854 137.487 140.879 137.536 140.882 137.589C140.886 137.643 140.869 137.695 140.834 137.735ZM142.06 136.321L141.445 137.028C141.427 137.05 141.404 137.067 141.378 137.079C141.353 137.091 141.325 137.096 141.297 137.096C141.249 137.097 141.202 137.08 141.165 137.048C141.125 137.013 141.1 136.964 141.097 136.911C141.093 136.858 141.11 136.805 141.145 136.765L141.756 136.058C141.791 136.018 141.841 135.993 141.894 135.989C141.947 135.985 142 136.003 142.04 136.038C142.08 136.073 142.105 136.122 142.109 136.176C142.112 136.229 142.095 136.281 142.06 136.321ZM143.286 134.908L142.671 135.615C142.653 135.636 142.63 135.653 142.604 135.665C142.579 135.677 142.551 135.683 142.523 135.682C142.475 135.683 142.428 135.666 142.391 135.634C142.351 135.599 142.327 135.55 142.323 135.497C142.319 135.444 142.337 135.391 142.371 135.351L142.982 134.644C143.017 134.604 143.067 134.579 143.12 134.575C143.173 134.572 143.226 134.589 143.266 134.624C143.306 134.659 143.331 134.709 143.335 134.762C143.338 134.815 143.321 134.867 143.286 134.908ZM144.512 133.49L143.897 134.197C143.881 134.217 143.86 134.234 143.837 134.247C143.813 134.259 143.788 134.266 143.762 134.268C143.735 134.27 143.709 134.266 143.684 134.258C143.659 134.249 143.637 134.235 143.617 134.217C143.598 134.2 143.581 134.179 143.57 134.156C143.558 134.132 143.551 134.107 143.549 134.081C143.547 134.055 143.55 134.029 143.559 134.004C143.567 133.979 143.58 133.957 143.597 133.937L144.208 133.23C144.244 133.19 144.293 133.165 144.346 133.162C144.399 133.158 144.452 133.175 144.492 133.21C144.512 133.227 144.528 133.248 144.54 133.271C144.552 133.294 144.559 133.32 144.56 133.346C144.562 133.372 144.559 133.398 144.551 133.423C144.542 133.447 144.529 133.47 144.512 133.49ZM145.738 132.076L145.123 132.783C145.107 132.803 145.086 132.82 145.063 132.833C145.04 132.845 145.014 132.852 144.988 132.854C144.961 132.856 144.935 132.852 144.91 132.844C144.885 132.835 144.863 132.821 144.844 132.803C144.824 132.786 144.807 132.765 144.796 132.742C144.784 132.719 144.777 132.693 144.775 132.667C144.773 132.641 144.777 132.615 144.785 132.59C144.793 132.566 144.806 132.543 144.824 132.523L145.435 131.816C145.47 131.776 145.519 131.752 145.572 131.748C145.625 131.744 145.678 131.762 145.718 131.796C145.738 131.813 145.754 131.834 145.766 131.857C145.778 131.881 145.785 131.906 145.787 131.932C145.789 131.958 145.785 131.984 145.777 132.009C145.769 132.034 145.755 132.056 145.738 132.076ZM146.964 130.662L146.349 131.369C146.332 131.391 146.309 131.409 146.283 131.421C146.258 131.432 146.23 131.438 146.201 131.437C146.163 131.437 146.126 131.427 146.093 131.407C146.061 131.386 146.035 131.357 146.019 131.322C146.003 131.288 145.998 131.249 146.003 131.211C146.008 131.174 146.025 131.138 146.05 131.109L146.661 130.402C146.696 130.362 146.745 130.338 146.798 130.334C146.852 130.33 146.904 130.348 146.944 130.382C146.964 130.399 146.98 130.42 146.992 130.443C147.004 130.467 147.011 130.492 147.013 130.518C147.015 130.544 147.011 130.57 147.003 130.595C146.995 130.62 146.982 130.643 146.964 130.662ZM148.19 129.248L147.575 129.955C147.558 129.977 147.535 129.995 147.51 130.007C147.484 130.019 147.456 130.024 147.428 130.023C147.389 130.024 147.352 130.013 147.32 129.993C147.287 129.972 147.262 129.943 147.246 129.908C147.229 129.874 147.224 129.835 147.229 129.798C147.235 129.76 147.251 129.724 147.276 129.696L147.887 128.989C147.904 128.969 147.925 128.952 147.948 128.94C147.971 128.928 147.997 128.921 148.023 128.919C148.049 128.917 148.076 128.92 148.101 128.929C148.125 128.937 148.149 128.95 148.168 128.967C148.188 128.984 148.205 129.005 148.217 129.028C148.229 129.051 148.236 129.077 148.238 129.103C148.24 129.129 148.237 129.155 148.229 129.18C148.22 129.205 148.207 129.228 148.19 129.248ZM149.417 127.834L148.801 128.541C148.767 128.581 148.718 128.605 148.666 128.609C148.613 128.612 148.562 128.595 148.522 128.561C148.482 128.526 148.457 128.477 148.453 128.424C148.45 128.37 148.467 128.318 148.502 128.278L149.113 127.571C149.148 127.53 149.197 127.506 149.251 127.502C149.304 127.498 149.356 127.516 149.397 127.551C149.437 127.586 149.462 127.635 149.465 127.688C149.469 127.742 149.451 127.794 149.417 127.834ZM150.643 126.421L150.028 127.127C150.009 127.149 149.987 127.166 149.961 127.178C149.936 127.19 149.908 127.195 149.88 127.195C149.832 127.196 149.785 127.179 149.748 127.147C149.708 127.112 149.683 127.063 149.68 127.01C149.676 126.957 149.693 126.904 149.728 126.864L150.339 126.157C150.374 126.117 150.424 126.092 150.477 126.088C150.53 126.084 150.582 126.102 150.623 126.137C150.663 126.172 150.688 126.221 150.691 126.275C150.695 126.328 150.678 126.38 150.643 126.421ZM151.869 125.007L151.254 125.714C151.235 125.734 151.212 125.751 151.187 125.763C151.161 125.774 151.134 125.781 151.106 125.781C151.058 125.782 151.011 125.765 150.974 125.734C150.934 125.698 150.909 125.649 150.906 125.596C150.902 125.543 150.919 125.49 150.954 125.45L151.565 124.743C151.6 124.703 151.65 124.679 151.703 124.675C151.756 124.671 151.808 124.689 151.848 124.724C151.888 124.759 151.913 124.808 151.917 124.861C151.921 124.914 151.904 124.966 151.869 125.007ZM153.095 123.593L152.48 124.3C152.445 124.339 152.397 124.363 152.344 124.367C152.292 124.371 152.24 124.354 152.2 124.32C152.16 124.285 152.136 124.235 152.132 124.182C152.128 124.129 152.146 124.076 152.18 124.036L152.791 123.329C152.809 123.309 152.83 123.293 152.853 123.281C152.877 123.269 152.903 123.262 152.929 123.26C152.956 123.258 152.982 123.261 153.007 123.27C153.032 123.278 153.056 123.291 153.075 123.309C153.095 123.326 153.112 123.347 153.124 123.371C153.135 123.394 153.142 123.42 153.144 123.447C153.146 123.473 153.143 123.5 153.134 123.525C153.126 123.55 153.112 123.573 153.095 123.593ZM154.321 122.175L153.706 122.886C153.687 122.907 153.663 122.924 153.637 122.936C153.611 122.947 153.583 122.954 153.554 122.954C153.507 122.954 153.462 122.937 153.426 122.906C153.386 122.871 153.362 122.821 153.358 122.768C153.354 122.715 153.372 122.663 153.406 122.622L154.018 121.915C154.053 121.875 154.102 121.851 154.155 121.847C154.208 121.843 154.261 121.861 154.301 121.895C154.321 121.912 154.337 121.933 154.349 121.956C154.361 121.98 154.368 122.005 154.37 122.031C154.371 122.057 154.368 122.083 154.36 122.108C154.351 122.133 154.338 122.155 154.321 122.175ZM155.547 120.761L154.932 121.468C154.914 121.49 154.892 121.508 154.866 121.52C154.841 121.533 154.813 121.539 154.784 121.54C154.76 121.54 154.736 121.536 154.713 121.527C154.691 121.518 154.67 121.505 154.653 121.488C154.633 121.471 154.617 121.45 154.605 121.427C154.593 121.404 154.586 121.378 154.584 121.352C154.582 121.326 154.586 121.3 154.594 121.276C154.602 121.251 154.615 121.228 154.633 121.208L155.244 120.501C155.279 120.461 155.328 120.437 155.381 120.433C155.434 120.429 155.487 120.447 155.527 120.481C155.547 120.498 155.563 120.519 155.575 120.542C155.587 120.566 155.594 120.591 155.596 120.617C155.598 120.643 155.594 120.669 155.586 120.694C155.578 120.719 155.564 120.742 155.547 120.761ZM156.773 119.347L156.158 120.054C156.14 120.076 156.118 120.093 156.092 120.105C156.066 120.116 156.039 120.122 156.01 120.122C155.972 120.123 155.935 120.112 155.903 120.092C155.87 120.071 155.844 120.042 155.828 120.007C155.812 119.973 155.807 119.934 155.812 119.897C155.817 119.859 155.834 119.823 155.859 119.795L156.47 119.088C156.505 119.048 156.554 119.023 156.607 119.019C156.661 119.015 156.713 119.033 156.753 119.068C156.773 119.085 156.79 119.105 156.801 119.129C156.813 119.152 156.82 119.177 156.822 119.203C156.824 119.229 156.82 119.256 156.812 119.28C156.804 119.305 156.791 119.328 156.773 119.347ZM157.999 117.933L157.384 118.64C157.366 118.662 157.342 118.68 157.316 118.691C157.29 118.703 157.261 118.709 157.233 118.708C157.195 118.708 157.158 118.697 157.126 118.676C157.094 118.656 157.069 118.626 157.054 118.592C157.038 118.557 157.033 118.519 157.038 118.482C157.044 118.444 157.06 118.409 157.085 118.381L157.696 117.674C157.731 117.634 157.78 117.609 157.834 117.605C157.887 117.602 157.939 117.619 157.979 117.654C157.999 117.671 158.016 117.691 158.027 117.715C158.039 117.738 158.046 117.764 158.048 117.79C158.05 117.816 158.047 117.842 158.038 117.866C158.03 117.891 158.017 117.914 157.999 117.933ZM159.226 116.519L158.611 117.226C158.591 117.248 158.568 117.265 158.542 117.276C158.516 117.288 158.487 117.294 158.459 117.294C158.421 117.294 158.384 117.283 158.352 117.262C158.321 117.242 158.295 117.212 158.28 117.178C158.264 117.144 158.259 117.105 158.264 117.068C158.27 117.03 158.286 116.995 158.311 116.967L158.922 116.256C158.958 116.217 159.007 116.193 159.06 116.189C159.113 116.185 159.165 116.202 159.206 116.236C159.246 116.271 159.27 116.321 159.274 116.374C159.278 116.427 159.26 116.479 159.226 116.519Z" fill="black"/>
<path d="M144.224 84.6293C144.194 84.6294 144.165 84.621 144.139 84.6052C143.506 84.1867 142.779 83.9317 142.023 83.8629C141.267 83.7941 140.506 83.9136 139.807 84.2108C139.769 84.2304 139.725 84.2342 139.685 84.2213C139.644 84.2085 139.61 84.1801 139.591 84.1423C139.571 84.1046 139.567 84.0606 139.58 84.0199C139.592 83.9792 139.62 83.9452 139.658 83.9253C140.405 83.5944 141.223 83.458 142.036 83.529C142.85 83.6 143.632 83.8761 144.31 84.3314C144.339 84.3499 144.362 84.3776 144.375 84.4103C144.387 84.443 144.389 84.4789 144.379 84.5126C144.37 84.5463 144.349 84.5759 144.321 84.597C144.293 84.618 144.259 84.6294 144.224 84.6293Z" fill="black"/>
<path d="M146.564 97.5606C146.634 96.7202 146.736 95.8994 146.82 95.074C146.915 94.2494 146.979 93.427 147.087 92.5894C147.222 93.4224 147.24 94.2702 147.14 95.1083C147.06 95.948 146.867 96.773 146.564 97.5606Z" fill="black"/>
<path d="M147.74 89.1012C147.727 89.1011 147.713 89.0996 147.7 89.0965C147.659 89.086 147.623 89.0594 147.602 89.0227C147.58 88.986 147.573 88.9421 147.584 88.9007C148.101 86.8565 146.027 85.1147 146.006 85.0975C145.973 85.0703 145.952 85.0311 145.948 84.9886C145.944 84.946 145.957 84.9036 145.984 84.8707C146.011 84.8377 146.05 84.8169 146.093 84.8128C146.135 84.8086 146.178 84.8215 146.211 84.8487C146.303 84.9251 148.463 86.7399 147.896 88.9795C147.887 89.0142 147.867 89.0451 147.839 89.0671C147.811 89.0892 147.776 89.1011 147.74 89.1012Z" fill="black"/>
<path d="M125.696 70.1435C125.876 69.9949 126.104 69.9161 126.338 69.9215C126.571 69.9269 126.795 70.0161 126.968 70.1729C126.968 70.1729 127.689 68.4654 132.388 68.789C132.388 68.789 132.046 70.0316 131.629 70.1221C131.212 70.2126 132.838 71.8683 133.946 71.5406C133.946 71.5406 136.47 73.9182 135.599 76.9454C134.74 79.929 133.891 81.0018 132.088 79.5786C132.032 79.5344 131.973 79.4955 131.91 79.4627C131.426 79.2133 129.304 78.2006 128.888 79.3894C128.802 79.6522 128.823 79.9386 128.947 80.1859C129.508 81.353 131.866 85.588 135.453 82.9151C135.453 82.9151 139.714 80.1691 137.726 76.2858C137.518 75.8921 137.261 75.5263 136.961 75.1973C136.667 74.8584 136.446 74.4631 136.31 74.0355C136.174 73.608 136.127 73.1572 136.172 72.7109C136.211 72.08 136.478 71.4848 136.923 71.0362C137.357 70.6138 137.989 70.3299 138.681 71.0974C138.968 71.4169 139.167 71.8054 139.258 72.2249C139.323 72.4179 139.343 72.6231 139.316 72.8249C139.29 73.0267 139.218 73.2199 139.106 73.3898L139.656 74.0565C139.773 73.5827 139.956 73.1276 140.2 72.7043C140.618 72.0454 140.809 71.2681 140.746 70.4903C140.627 69.2603 140.068 67.5068 138.186 65.7301C138.186 65.7301 135.436 62.3101 131.868 63.1717C128.3 64.0333 125.422 65.662 125.696 70.1435Z" fill="black"/>
<path d="M132.785 73.8443C132.155 74.0144 131.529 74.1534 130.914 74.3284C130.605 74.4095 130.303 74.5104 130.005 74.6186C129.702 74.7218 129.418 74.8731 129.164 75.0667C129.364 74.8005 129.627 74.5892 129.93 74.4522C130.224 74.3033 130.532 74.1853 130.85 74.1002C131.165 74.013 131.486 73.9478 131.809 73.9052C132.132 73.8585 132.459 73.8382 132.785 73.8443Z" fill="black"/>
<path d="M126.768 75.0866C127.02 75.0612 127.276 75.0966 127.512 75.1898C127.637 75.24 127.749 75.3166 127.842 75.4143C127.934 75.512 128.005 75.6285 128.048 75.7558C128.108 76.0111 128.113 76.2765 128.06 76.5336L127.946 77.2681C127.846 77.7403 127.815 78.2245 127.855 78.7055C127.864 78.8186 127.899 78.928 127.957 79.0258C128.014 79.1235 128.093 79.2071 128.187 79.2703C128.404 79.3782 128.647 79.4192 128.887 79.3882C128.641 79.4667 128.376 79.4615 128.134 79.3734C128.015 79.3092 127.912 79.2193 127.833 79.1101C127.754 79.001 127.7 78.8754 127.676 78.7428C127.594 78.2408 127.606 77.7279 127.712 77.2303L127.839 76.5007C127.893 76.2738 127.905 76.0388 127.874 75.8075C127.775 75.3534 127.246 75.1326 126.768 75.0866Z" fill="black"/>
<path d="M125.695 70.1433L126.274 72.982C126.384 73.4507 126.49 73.9196 126.614 74.3821C126.683 74.6111 126.75 74.8408 126.837 75.0611C126.912 75.2821 127.014 75.493 127.141 75.6889L127.128 75.676C127.306 75.8161 127.472 75.9718 127.623 76.1413C127.698 76.2263 127.767 76.3173 127.828 76.4133C127.895 76.507 127.926 76.6216 127.916 76.7364C127.907 76.6264 127.861 76.5226 127.787 76.4413C127.717 76.3563 127.641 76.277 127.559 76.2041C127.394 76.0588 127.22 75.9229 127.04 75.7971C127.035 75.7934 127.03 75.7891 127.026 75.7841C126.739 75.379 126.528 74.9247 126.405 74.4437C126.263 73.9782 126.147 73.5052 126.058 73.0268C125.869 72.0754 125.748 71.1118 125.695 70.1433Z" fill="black"/>
<path d="M129.971 77.7727C130.07 77.823 130.156 77.8975 130.219 77.9895C130.283 78.0815 130.322 78.1879 130.334 78.2991C130.338 78.4155 130.302 78.5297 130.232 78.6229C130.198 78.6667 130.16 78.707 130.119 78.7432C130.073 78.7743 130.026 78.8011 129.982 78.8288C130.123 78.6901 130.207 78.5027 130.216 78.3046C130.211 78.2088 130.185 78.1154 130.138 78.0316C130.091 77.9401 130.035 77.8534 129.971 77.7727Z" fill="black"/>
<path d="M139.105 73.3887C139.094 73.6237 139.075 73.8526 139.076 74.0773C139.076 74.187 139.083 74.2967 139.096 74.4056C139.102 74.457 139.112 74.5078 139.126 74.5576C139.149 74.6269 139.158 74.7001 139.151 74.7728C139.137 74.8441 139.108 74.9119 139.068 74.9723C139.027 75.0326 138.975 75.0843 138.914 75.1244C138.812 75.1969 138.7 75.253 138.58 75.2904C138.354 75.3723 138.111 75.3958 137.873 75.3588C138.094 75.3064 138.308 75.227 138.509 75.1224C138.695 75.0223 138.901 74.8826 138.916 74.7413C138.932 74.6983 138.876 74.5502 138.874 74.4267C138.867 74.3051 138.874 74.1831 138.895 74.0632C138.93 73.829 139.001 73.6016 139.105 73.3887Z" fill="black"/>
<path d="M139.654 74.0569C139.895 74.3194 140.138 74.5743 140.39 74.8176C140.638 75.0609 140.901 75.289 141.177 75.5007C141.448 75.7131 141.742 75.8952 142.052 76.0437C142.369 76.1881 142.709 76.2755 143.056 76.3021C142.697 76.366 142.328 76.3354 141.985 76.2132C141.641 76.0913 141.32 75.9143 141.033 75.6891C140.747 75.4699 140.487 75.2191 140.257 74.9415C140.023 74.6704 139.821 74.3736 139.654 74.0569Z" fill="black"/>
<path d="M138.717 84.4763C138.413 84.5083 138.105 84.4734 137.816 84.3741C137.525 84.2815 137.247 84.1525 136.988 83.9901C136.73 83.8302 136.489 83.6449 136.268 83.437L135.951 83.1145C135.858 82.9952 135.759 82.8821 135.672 82.759L136.385 83.2967C136.627 83.464 136.861 83.641 137.113 83.7884C137.359 83.9432 137.616 84.082 137.88 84.2042C138.147 84.3278 138.428 84.4192 138.717 84.4763Z" fill="black"/>
<path d="M130.798 75.9001C130.891 75.8969 130.978 75.8579 131.043 75.7912C131.107 75.7246 131.143 75.6356 131.143 75.5429C131.143 75.4503 131.107 75.3613 131.043 75.2946C130.978 75.228 130.891 75.189 130.798 75.1858C130.706 75.189 130.618 75.228 130.553 75.2946C130.489 75.3613 130.453 75.4503 130.453 75.5429C130.453 75.6356 130.489 75.7246 130.553 75.7912C130.618 75.8579 130.706 75.8969 130.798 75.9001Z" fill="black"/>
<path d="M119.725 179.936C118.902 178.77 117.129 179.11 115.919 179.529C115.321 179.748 114.682 179.832 114.049 179.774C113.415 179.717 112.801 179.52 112.252 179.197C109.896 177.744 110.028 175.148 110.228 173.989C110.331 173.439 110.253 172.87 110.004 172.368C108.77 170.035 105.818 172.911 105.818 172.911C106.271 173.157 106.672 173.488 107 173.885C107.341 174.281 107.607 174.734 107.787 175.223C107.973 175.712 108.072 176.23 108.079 176.753C108.095 177.271 107.996 177.785 107.787 178.259C107.737 177.297 107.542 176.347 107.208 175.443C107.043 175 106.841 174.571 106.605 174.161C106.377 173.742 106.09 173.35 105.818 172.911C105.818 172.911 104.369 172.627 102.336 172.22C102.679 172.589 102.973 173.002 103.21 173.446C103.455 173.888 103.654 174.354 103.805 174.836C103.963 175.33 104.037 175.847 104.025 176.366C104.02 176.632 103.97 176.895 103.877 177.145C103.784 177.395 103.617 177.611 103.398 177.764C103.592 177.332 103.644 176.849 103.546 176.386C103.465 175.922 103.354 175.465 103.214 175.016C102.939 174.101 102.595 173.199 102.336 172.22C101.241 172 99.9752 171.745 98.6771 171.481C99.0692 171.819 99.4037 172.218 99.6676 172.663C99.9402 173.106 100.154 173.583 100.303 174.081C100.449 174.591 100.504 175.122 100.466 175.651C100.422 176.179 100.23 176.685 99.9112 177.109C99.9932 176.626 100.019 176.135 99.9871 175.647C99.9337 175.175 99.8402 174.709 99.7075 174.253C99.5738 173.786 99.4165 173.326 99.2363 172.875L98.6772 171.481C96.5044 171.034 94.2399 170.567 92.5305 170.187C87.9095 169.169 87.5661 171.214 87.5661 171.214C87.7455 171.018 87.9612 170.859 88.2011 170.746C88.4497 170.62 88.7376 170.596 89.0039 170.678C89.2672 170.774 89.4936 170.95 89.6509 171.182C89.8244 171.396 89.9534 171.643 90.0303 171.909C90.1083 172.174 90.1447 172.45 90.1382 172.727C90.1204 172.994 90.0844 173.26 90.0303 173.522C89.9656 174.023 89.9913 174.532 90.1062 175.024C90.3756 176.004 90.9057 176.893 91.6399 177.596C92.3769 178.299 93.201 178.904 94.0921 179.397L94.1081 179.405C95.8295 180.164 97.5149 180.987 99.1843 181.857C100.019 182.305 100.842 182.768 101.653 183.267L102.252 183.651L102.839 184.066C103.031 184.21 103.218 184.369 103.406 184.521C103.582 184.685 103.777 184.881 103.929 185.041C104.579 185.691 105.291 186.277 106.054 186.79C106.822 187.32 107.616 187.811 108.434 188.26C109.253 188.709 110.096 189.113 110.958 189.47C111.389 189.646 111.833 189.792 112.284 189.905C112.734 190.035 113.204 190.083 113.67 190.045C112.726 190.139 111.774 190.008 110.891 189.661C109.992 189.363 109.116 188.998 108.27 188.571C107.422 188.149 106.597 187.682 105.798 187.173C104.977 186.674 104.214 186.083 103.526 185.412C102.872 184.771 102.136 184.219 101.337 183.77C100.542 183.291 99.7235 182.84 98.8968 182.401C97.2433 181.53 95.5539 180.707 93.8565 179.92L93.8485 179.916L93.8325 179.908C92.8965 179.374 92.039 178.713 91.2844 177.943C90.5191 177.156 89.9845 176.174 89.7388 175.104C89.6323 174.565 89.6256 174.011 89.7188 173.47C89.7808 173.22 89.8302 172.967 89.8666 172.711C89.8893 172.461 89.8717 172.209 89.8147 171.964C89.7578 171.72 89.6548 171.488 89.5111 171.281C89.383 171.067 89.192 170.897 88.964 170.794C88.7148 170.732 88.4536 170.739 88.2076 170.812C87.9617 170.886 87.7401 171.025 87.5661 171.214C84.2152 176.022 92.4027 181.007 99.2363 183.782C106.07 186.554 107.62 189.262 107.62 189.262C110.056 192.933 112.28 192.697 113.83 191.674C114.422 191.258 114.91 190.711 115.256 190.076C115.603 189.441 115.798 188.735 115.827 188.012C115.951 186.179 117.66 184.33 117.66 184.33C117.66 184.33 121.043 181.805 119.725 179.936ZM113.171 184.645C112.844 185.512 111.637 184.925 109.597 185.092C107.839 185.24 106.877 183.267 107.2 182.401C107.528 181.53 109.129 181.33 110.779 181.949C112.424 182.568 113.499 183.775 113.171 184.645V184.645Z" fill="black"/>
<path d="M110.227 173.988C110.278 174.006 110.333 174.011 110.386 174.004C110.44 173.996 110.491 173.977 110.536 173.947C110.633 173.896 110.725 173.835 110.809 173.764C110.982 173.626 111.146 173.478 111.302 173.322C111.612 173.002 111.918 172.677 112.211 172.337C112.808 171.668 113.381 170.974 114.026 170.327C113.583 171.123 113.055 171.868 112.452 172.551C112.15 172.895 111.821 173.216 111.469 173.509C111.29 173.656 111.097 173.786 110.893 173.897C110.789 173.952 110.679 173.995 110.565 174.027C110.51 174.05 110.45 174.058 110.391 174.051C110.332 174.045 110.275 174.023 110.227 173.988Z" fill="black"/>
<path d="M117.957 179.138C118.44 178.396 118.96 177.68 119.516 176.991C120.066 176.301 120.624 175.626 121.212 174.957C120.818 175.754 120.333 176.504 119.768 177.191C119.222 177.891 118.616 178.542 117.957 179.138Z" fill="black"/>
<path d="M237.169 137.847C233.89 131.241 234.521 128.186 234.521 128.186C235.128 123.825 233.307 122.527 231.47 122.267C230.751 122.186 230.023 122.271 229.343 122.517C228.663 122.763 228.049 123.163 227.548 123.685C226.242 124.975 223.734 125.231 223.734 125.231C223.734 125.231 219.528 124.875 219.277 127.152C219.121 128.573 220.67 129.488 221.857 129.979C222.449 130.211 222.983 130.571 223.42 131.034C223.857 131.497 224.187 132.05 224.385 132.655C225.187 135.307 223.366 137.164 222.452 137.899C222.008 138.241 221.69 138.72 221.545 139.261C220.922 141.829 225.036 141.625 225.036 141.625C224.862 141.142 224.781 140.63 224.796 140.116C224.806 139.594 224.907 139.077 225.096 138.59C225.279 138.101 225.548 137.647 225.89 137.252C226.221 136.853 226.637 136.533 227.109 136.318C226.506 137.071 226.021 137.911 225.671 138.81C225.504 139.252 225.372 139.706 225.275 140.168C225.168 140.639 225.124 141.118 225.036 141.625C225.036 141.625 225.934 142.8 227.188 144.449C227.175 143.946 227.229 143.444 227.348 142.955C227.453 142.46 227.613 141.978 227.823 141.518C228.032 141.044 228.319 140.608 228.67 140.228C228.85 140.031 229.062 139.866 229.297 139.74C229.533 139.615 229.802 139.565 230.068 139.597C229.636 139.791 229.278 140.119 229.046 140.531C228.797 140.931 228.576 141.348 228.383 141.777C227.983 142.644 227.644 143.547 227.188 144.449V144.453C227.863 145.344 228.638 146.37 229.437 147.425C229.37 146.914 229.385 146.397 229.481 145.891C229.568 145.377 229.724 144.878 229.944 144.405C230.173 143.927 230.482 143.492 230.859 143.119C231.244 142.753 231.724 142.503 232.245 142.396C231.861 142.702 231.517 143.054 231.218 143.443C230.944 143.831 230.705 144.243 230.503 144.673C230.288 145.1 230.124 145.556 229.944 146.015L229.437 147.425V147.429C230.771 149.202 232.157 151.055 233.187 152.469C235.971 156.299 237.585 154.989 237.585 154.989C243.28 153.611 240.448 144.453 237.169 137.847ZM230.288 133.606C229.469 134.037 228.135 133.131 227.312 131.573C226.489 130.015 226.486 128.402 227.304 127.966C228.123 127.535 228.638 128.773 230.28 129.999C231.69 131.054 231.106 133.17 230.288 133.606ZM238.535 150.64C238.258 151.114 237.896 151.533 237.469 151.878C237.254 152.022 237.048 152.179 236.854 152.349C236.672 152.521 236.518 152.72 236.398 152.94C236.277 153.16 236.2 153.402 236.171 153.651C236.125 153.897 236.156 154.151 236.259 154.378C236.4 154.586 236.593 154.752 236.82 154.86C237.047 154.967 237.299 155.012 237.549 154.989C237.296 155.019 237.041 154.995 236.798 154.921C236.527 154.851 236.295 154.677 236.151 154.438C236.02 154.192 235.967 153.912 235.999 153.635C236.015 153.36 236.083 153.091 236.199 152.84C236.315 152.589 236.472 152.359 236.662 152.157C236.85 151.967 237.051 151.791 237.265 151.63C237.648 151.3 237.966 150.902 238.204 150.456C238.656 149.545 238.848 148.526 238.759 147.513C238.675 146.488 238.456 145.48 238.108 144.513C237.325 142.808 236.601 141.077 235.935 139.321C235.608 138.434 235.296 137.54 235.021 136.633L234.825 135.946L234.661 135.247C234.609 135.012 234.577 134.768 234.537 134.528C234.513 134.289 234.497 134.013 234.489 133.793C234.433 132.876 234.287 131.967 234.054 131.078C233.835 130.171 233.566 129.278 233.247 128.402C232.932 127.523 232.57 126.661 232.161 125.822C231.954 125.402 231.718 124.998 231.454 124.611C231.201 124.218 230.881 123.871 230.507 123.589C231.277 124.146 231.904 124.876 232.337 125.722C232.812 126.541 233.227 127.394 233.579 128.274C233.934 129.151 234.242 130.047 234.501 130.958C234.788 131.877 234.967 132.825 235.037 133.785C235.103 134.698 235.288 135.597 235.588 136.461C235.867 137.348 236.179 138.231 236.51 139.105C237.173 140.855 237.892 142.588 238.643 144.301V144.309L238.651 144.329C238.997 145.35 239.201 146.413 239.258 147.489C239.309 148.585 239.059 149.675 238.535 150.64Z" fill="black"/>
<path d="M222.92 138.474C222.236 138.411 221.55 138.382 220.864 138.389C220.18 138.393 219.498 138.417 218.816 138.46C218.134 138.495 217.453 138.563 216.77 138.624C216.088 138.693 215.404 138.767 214.713 138.828C215.042 138.718 215.377 138.631 215.71 138.535C216.048 138.458 216.385 138.375 216.727 138.316C217.409 138.19 218.099 138.105 218.792 138.061C219.486 138.019 220.183 138.025 220.876 138.079C221.571 138.125 222.258 138.258 222.92 138.474Z" fill="black"/>
<path d="M220.07 128.921C219.223 129.182 218.36 129.387 217.487 129.534C216.618 129.685 215.753 129.814 214.861 129.895C215.265 129.703 215.686 129.549 216.118 129.435C216.546 129.312 216.981 129.222 217.417 129.141C218.291 128.977 219.18 128.903 220.07 128.921Z" fill="black"/>
<path d="M170.49 81.1378C170.686 81.1202 170.884 81.1453 171.07 81.2112C171.255 81.2771 171.425 81.3823 171.566 81.5196C171.707 81.6688 171.803 81.8551 171.843 82.0568C171.884 82.254 171.895 82.4563 171.876 82.6568L171.871 82.6068C171.947 82.6873 172.045 82.7434 172.153 82.7679C172.282 82.8025 172.415 82.8212 172.549 82.8236C172.821 82.84 173.106 82.801 173.399 82.7937C173.691 82.7841 173.977 82.7526 174.275 82.761C174.428 82.7597 174.581 82.7734 174.731 82.8019C174.903 82.8269 175.064 82.8981 175.198 83.0077C175.271 83.0741 175.326 83.1582 175.358 83.2519C175.389 83.3456 175.396 83.4458 175.378 83.543C175.337 83.7196 175.235 83.8761 175.091 83.9852C174.848 84.1714 174.578 84.3169 174.289 84.4158C174.014 84.5219 173.731 84.6046 173.442 84.663C173.299 84.6939 173.154 84.7214 173.01 84.7428C172.937 84.7528 172.867 84.7658 172.787 84.7737L172.675 84.7801L172.614 84.7803L172.578 84.7774L172.551 84.7721C172.538 84.7628 172.523 84.7775 172.481 84.718L172.487 84.7284C172.493 84.7563 172.557 84.7667 172.548 84.7636C172.552 84.7642 172.557 84.7636 172.561 84.7618L172.548 84.766C172.534 84.7719 172.521 84.7785 172.507 84.7859L172.418 84.8384L172.238 84.9568L171.879 85.2061L171.169 85.7228C171.378 85.5164 171.594 85.3185 171.813 85.1235L172.147 84.8348C172.203 84.7871 172.262 84.7418 172.323 84.6976L172.419 84.6326C172.437 84.6212 172.455 84.6107 172.474 84.6012L172.513 84.5859C172.526 84.5827 172.54 84.5809 172.553 84.5805C172.57 84.5812 172.586 84.5855 172.601 84.5931C172.616 84.6006 172.629 84.6112 172.639 84.6242L172.645 84.6348C172.608 84.5831 172.603 84.6002 172.599 84.5935C172.596 84.5925 172.596 84.5928 172.598 84.5927L172.616 84.5926L172.663 84.5894L172.766 84.5767L172.97 84.5345C173.11 84.5042 173.247 84.469 173.384 84.43C173.656 84.3522 173.923 84.2605 174.186 84.1552C174.442 84.0619 174.682 83.9282 174.896 83.759C174.984 83.6932 175.047 83.5994 175.075 83.4931C175.083 83.4478 175.08 83.4012 175.064 83.3577C175.049 83.3143 175.023 83.2756 174.988 83.2455C174.769 83.1193 174.518 83.0584 174.265 83.07C173.986 83.0559 173.695 83.0809 173.41 83.0843C173.127 83.0847 172.835 83.1194 172.53 83.0954C172.376 83.0833 172.223 83.0516 172.077 83.0011C171.99 82.9774 171.91 82.9368 171.839 82.8817C171.769 82.8266 171.71 82.7581 171.666 82.6802C171.66 82.6684 171.657 82.6549 171.659 82.6417L171.66 82.63C171.689 82.4518 171.69 82.2705 171.666 82.0918C171.641 81.9157 171.572 81.7487 171.465 81.6064C171.343 81.4663 171.193 81.3526 171.026 81.272C170.858 81.1914 170.676 81.1458 170.49 81.1378Z" fill="black"/>
<path d="M196.223 66.1478C198.962 65.2847 201.714 64.4708 204.478 63.7061C207.24 62.9307 210.014 62.2005 212.789 61.4792C215.569 60.7722 218.351 60.0751 221.144 59.4229C223.935 58.7598 226.738 58.1467 229.555 57.5837C226.816 58.4478 224.064 59.262 221.299 60.0266C218.537 60.8018 215.764 61.5319 212.988 62.2524C210.208 62.9583 207.426 63.6555 204.633 64.3075C201.842 64.9702 199.039 65.5837 196.223 66.1478Z" fill="black"/>
<path d="M184.748 77.1264C187.487 76.2632 190.239 75.4493 193.004 74.6846C195.766 73.9092 198.539 73.1791 201.315 72.4577C204.094 71.7508 206.876 71.0536 209.67 70.4014C212.46 69.7383 215.264 69.1252 218.08 68.5623C215.341 69.4263 212.589 70.2406 209.825 71.0052C207.063 71.7804 204.289 72.5105 201.513 73.2309C198.734 73.9369 195.952 74.6341 193.158 75.2861C190.368 75.9488 187.564 76.5622 184.748 77.1264Z" fill="black"/>
<path d="M205.736 78.0659C207.241 77.4572 208.767 76.9241 210.301 76.4177C211.834 75.9065 213.38 75.4401 214.928 74.9825C216.481 74.5392 218.036 74.1055 219.604 73.7165C221.171 73.3227 222.746 72.9561 224.342 72.6658C222.838 73.2754 221.312 73.8089 219.778 74.3151C218.245 74.8261 216.699 75.2924 215.151 75.7492C213.598 76.1916 212.043 76.6252 210.474 77.014C208.908 77.4076 207.333 77.7746 205.736 78.0659Z" fill="black"/>
<path d="M89.0108 40.6777C89.0582 40.6796 89.102 40.6813 89.142 40.683L94.7837 53.3405C94.6309 53.3493 94.4558 53.3599 94.26 53.3725C93.4604 53.4241 92.3152 53.5096 90.9301 53.6456C88.161 53.9176 84.4267 54.3918 80.5742 55.2014C76.7261 56.0101 72.7361 57.1583 69.4675 58.7872C66.8068 60.1132 64.5632 61.7883 63.2994 63.9122C63.276 63.7912 63.2511 63.6641 63.2244 63.5312C62.9796 62.3107 62.5933 60.6027 62.0265 58.6491C60.8953 54.7501 59.0352 49.8365 56.1212 45.8712C55.8001 45.4342 55.6704 45.0752 55.6526 44.7853C55.6354 44.506 55.7188 44.2422 55.9217 43.9766C56.3537 43.4108 57.2954 42.8805 58.7283 42.4228C61.5588 41.5186 65.9016 41.0177 70.476 40.7586C75.0369 40.5003 79.7803 40.4845 83.3863 40.5335C85.1887 40.558 86.7054 40.5987 87.7712 40.6333C88.3041 40.6505 88.7241 40.6663 89.0108 40.6777Z" fill="#AAB91E" stroke="#1E3E2A"/>
<path d="M135.018 103.288C135.132 102.802 135.252 102.319 135.375 101.836C135.499 101.353 135.613 100.868 135.744 100.388L136.514 97.5007L136.514 97.4983C136.526 97.4537 136.553 97.4145 136.59 97.387C136.627 97.3595 136.672 97.3454 136.719 97.347C137.472 97.3739 138.172 97.4577 138.894 97.5421C139.609 97.6322 140.322 97.7328 141.035 97.8376C141.746 97.9505 142.456 98.0632 143.164 98.1946C143.873 98.3181 144.577 98.4672 145.283 98.6049L145.292 98.6067C145.338 98.616 145.38 98.6425 145.407 98.6811C145.435 98.7196 145.447 98.7672 145.441 98.8142C145.247 100.275 144.985 101.718 144.718 103.161C144.448 104.603 144.17 106.045 143.8 107.468C143.621 108.181 143.421 108.89 143.18 109.588C142.948 110.298 142.645 110.982 142.276 111.63C142.082 111.964 141.845 112.271 141.572 112.544C141.273 112.835 140.891 113.026 140.479 113.093C139.718 113.135 138.955 113.061 138.216 112.874C135.355 112.17 132.553 111.242 129.838 110.099C128.48 109.541 127.129 108.967 125.786 108.377C124.45 107.771 123.114 107.167 121.799 106.515L121.825 106.522L120.448 106.307C120.444 106.307 120.441 106.305 120.437 106.303C120.434 106.301 120.431 106.299 120.429 106.296C120.427 106.293 120.426 106.29 120.425 106.286C120.424 106.282 120.424 106.279 120.424 106.275C120.425 106.268 120.429 106.262 120.435 106.257C120.441 106.253 120.448 106.251 120.455 106.251L121.841 106.356C121.848 106.356 121.855 106.358 121.862 106.36L121.868 106.363C123.228 106.905 124.584 107.46 125.95 107.988C127.308 108.532 128.673 109.061 130.043 109.574C131.41 110.094 132.782 110.595 134.16 111.077C135.54 111.55 136.924 112.019 138.332 112.351C139.013 112.534 139.716 112.621 140.421 112.61C140.737 112.567 141.032 112.427 141.266 112.211C141.518 111.971 141.739 111.702 141.925 111.408C142.662 110.159 143.222 108.814 143.589 107.41C143.982 106.002 144.298 104.572 144.535 103.129C144.771 101.685 144.931 100.227 145.058 98.7749L145.216 98.9841L143.085 98.6681L140.957 98.3402C140.249 98.2288 139.54 98.1181 138.831 98.02C138.127 97.9242 137.401 97.8158 136.719 97.7738L136.923 97.6202L136.019 100.468C135.871 100.944 135.707 101.414 135.552 101.888C135.396 102.361 135.237 102.833 135.072 103.304C135.07 103.31 135.065 103.316 135.058 103.32C135.052 103.323 135.044 103.324 135.037 103.322C135.031 103.32 135.025 103.315 135.021 103.309C135.017 103.302 135.016 103.295 135.018 103.288Z" fill="#020202"/>
<path d="M120.48 106.275L120.48 106.279L120.423 106.28C120.423 106.286 120.425 106.291 120.428 106.295C120.432 106.3 120.437 106.303 120.442 106.305C120.447 106.306 120.453 106.306 120.459 106.305C120.467 106.301 120.468 106.3 120.468 106.3L120.443 106.308C119.582 106.23 118.722 106.136 117.863 106.008C117 105.88 116.146 105.691 115.309 105.443C114.852 105.326 114.437 105.081 114.113 104.736C113.805 104.362 113.628 103.897 113.61 103.412C113.592 102.955 113.642 102.498 113.758 102.056C113.865 101.618 114.016 101.192 114.21 100.786L114.264 101.085C113.431 100.309 112.605 99.524 111.795 98.7233L111.818 98.7422C111.484 98.5077 111.216 98.1907 111.041 97.8221C110.993 97.7124 110.972 97.5925 110.98 97.4729C110.989 97.3532 111.026 97.2375 111.09 97.1357C111.153 97.0404 111.235 96.9592 111.332 96.8972C111.428 96.8351 111.536 96.7934 111.648 96.7748C111.866 96.7388 112.089 96.7806 112.279 96.8929L112.75 97.1903C113.061 97.3883 113.377 97.5781 113.693 97.7678C114.325 98.1475 114.967 98.5101 115.622 98.844C115.945 99.0117 116.28 99.1561 116.624 99.276C116.701 99.3041 116.782 99.3175 116.864 99.3157C116.951 99.3142 117.038 99.306 117.123 99.2913C117.158 99.2856 117.192 99.2745 117.223 99.2582C117.248 99.2394 117.238 99.2472 117.241 99.2378C117.221 99.1693 117.185 99.1059 117.138 99.0519C116.91 98.7693 116.662 98.5024 116.398 98.2531C116.266 98.128 116.13 98.0089 115.989 97.8923C115.918 97.8326 115.848 97.7782 115.77 97.7041C115.737 97.6771 115.71 97.6432 115.691 97.6047C115.672 97.5662 115.662 97.524 115.661 97.481C115.666 97.4326 115.684 97.3865 115.713 97.3476C115.743 97.3086 115.782 97.2782 115.827 97.2596C116.021 97.1831 116.228 97.1468 116.437 97.1526C116.629 97.1505 116.821 97.1608 117.011 97.1835C118.162 97.3142 119.241 97.8065 120.094 98.5897C120.675 99.0875 121.175 99.6741 121.574 100.328L121.432 100.213C122.929 100.709 124.437 101.179 125.941 101.655C127.446 102.116 128.954 102.614 130.463 102.976C130.643 103.019 130.825 103.052 131.008 103.073C131.184 103.072 131.359 103.05 131.53 103.008C131.93 102.935 132.336 102.892 132.742 102.881C133.562 102.849 134.38 102.986 135.144 103.285C135.89 103.592 136.586 104.01 137.208 104.525C137.826 105.028 138.404 105.564 139.023 106.053C139.026 106.055 139.029 106.058 139.031 106.061C139.032 106.064 139.034 106.068 139.034 106.071C139.035 106.075 139.034 106.079 139.033 106.082C139.032 106.086 139.031 106.089 139.028 106.092C139.024 106.098 139.018 106.102 139.011 106.103C139.004 106.104 138.997 106.103 138.991 106.099C138.322 105.67 137.709 105.164 137.064 104.717C136.439 104.258 135.749 103.893 135.018 103.633C134.291 103.395 133.525 103.299 132.761 103.349C132.379 103.372 131.998 103.425 131.624 103.506L131.342 103.564C131.287 103.577 131.231 103.587 131.174 103.594C131.109 103.603 131.042 103.604 130.976 103.599C130.766 103.582 130.558 103.553 130.352 103.509C129.558 103.354 128.798 103.133 128.033 102.92C127.27 102.704 126.514 102.469 125.76 102.229C124.25 101.752 122.756 101.234 121.26 100.716L121.257 100.715C121.199 100.694 121.15 100.654 121.118 100.601C120.755 99.9869 120.303 99.4298 119.778 98.9473C119.263 98.4549 118.657 98.0673 117.994 97.8062C117.661 97.6784 117.316 97.5843 116.964 97.5254C116.789 97.4959 116.612 97.4778 116.435 97.471C116.274 97.4588 116.112 97.4763 115.958 97.5227C115.929 97.5308 115.934 97.5537 115.948 97.4977C115.936 97.4399 115.944 97.4851 115.973 97.5072C116.026 97.5632 116.099 97.626 116.166 97.6878C116.305 97.8125 116.441 97.9425 116.572 98.077C116.831 98.3474 117.076 98.6316 117.305 98.9283C117.379 99.0148 117.427 99.1201 117.445 99.2324C117.444 99.2738 117.433 99.3144 117.412 99.3498C117.39 99.3851 117.359 99.4139 117.323 99.433C117.272 99.4597 117.217 99.4779 117.161 99.4868C117.064 99.5022 116.967 99.5101 116.869 99.5105C116.766 99.5114 116.664 99.4936 116.567 99.4579C116.215 99.3297 115.873 99.1762 115.544 98.9987C114.884 98.6621 114.24 98.2998 113.592 97.9429L112.625 97.4007L112.145 97.1319C112.011 97.0608 111.855 97.0396 111.706 97.0719C111.637 97.0867 111.571 97.1156 111.513 97.1568C111.456 97.1979 111.407 97.2506 111.371 97.3113C111.34 97.3691 111.324 97.4338 111.325 97.4994C111.325 97.565 111.343 97.6293 111.375 97.6865C111.539 97.9767 111.773 98.2218 112.054 98.4001L112.073 98.4145L112.078 98.4191C112.934 99.1707 113.775 99.9384 114.609 100.714C114.648 100.75 114.675 100.798 114.685 100.85C114.696 100.903 114.689 100.957 114.667 101.005L114.663 101.014C114.293 101.75 114.097 102.561 114.088 103.385C114.089 103.771 114.217 104.146 114.453 104.452C114.721 104.742 115.061 104.956 115.439 105.07C116.247 105.351 117.073 105.577 117.913 105.743C118.751 105.94 119.604 106.077 120.451 106.251L120.427 106.259C120.431 106.255 120.436 106.252 120.441 106.251C120.446 106.249 120.453 106.249 120.459 106.251C120.464 106.252 120.47 106.256 120.473 106.261C120.478 106.266 120.48 106.272 120.48 106.279C120.48 106.282 120.48 106.286 120.479 106.29C120.478 106.293 120.476 106.297 120.474 106.3C120.472 106.303 120.469 106.305 120.466 106.307C120.462 106.309 120.459 106.31 120.455 106.311C120.451 106.311 120.448 106.311 120.444 106.31C120.44 106.309 120.437 106.307 120.434 106.305C120.431 106.303 120.428 106.3 120.427 106.296C120.425 106.293 120.423 106.29 120.423 106.286L120.423 106.279L120.423 106.275C120.423 106.268 120.427 106.261 120.432 106.256C120.437 106.251 120.444 106.248 120.451 106.248C120.459 106.248 120.466 106.251 120.471 106.256C120.476 106.261 120.479 106.268 120.48 106.275L120.48 106.275Z" fill="#020202"/>
</svg>
